<?xml version="1.0" standalone="no"?>
<!DOCTYPE svg PUBLIC "-//W3C//DTD SVG 20010904//EN"
 "http://www.w3.org/TR/2001/REC-SVG-20010904/DTD/svg10.dtd">
<svg version="1.0" xmlns="http://www.w3.org/2000/svg"
 width="700.000000pt" height="700.000000pt" viewBox="0 0 700.000000 700.000000"
 preserveAspectRatio="xMidYMid meet">
<metadata>
Created by potrace 1.14, written by Peter Selinger 2001-2017
</metadata>
<g transform="translate(0.000000,700.000000) scale(0.100000,-0.100000)"
fill="#000000" stroke="none">
<path d="M299 6438 c-1 -13 -2 -19 -13 -128 -24 -234 8 -523 87 -795 223 -756
863 -1364 1802 -1709 55 -20 107 -40 115 -43 8 -4 17 -7 20 -8 3 0 65 -20 139
-44 124 -40 476 -133 546 -144 17 -3 89 -17 160 -31 166 -32 181 -35 235 -42
25 -3 61 -9 80 -13 20 -4 44 -6 55 -5 11 2 45 6 75 10 30 3 57 8 60 9 3 2 26
6 50 10 25 3 52 8 60 10 8 2 35 7 60 10 25 4 72 13 105 20 33 8 71 16 85 19
97 19 139 28 231 51 668 169 1216 423 1619 749 350 284 594 614 747 1009 34
88 95 313 108 397 4 25 9 54 11 65 28 138 23 615 -6 615 -5 0 -34 -44 -66 -97
-111 -190 -293 -488 -344 -563 -6 -8 -18 -27 -28 -42 -98 -151 -395 -566 -421
-588 -3 -3 -19 -23 -36 -45 -34 -46 -43 -57 -150 -180 -153 -175 -384 -383
-479 -432 l-31 -16 20 24 c11 13 25 29 31 35 26 28 86 167 104 240 31 123 38
187 35 318 -3 136 -8 188 -36 331 -20 100 -31 140 -92 332 -53 168 -56 164
-177 -254 -195 -677 -414 -1092 -676 -1279 -49 -35 -201 -104 -229 -104 -13 0
-1 27 46 103 130 208 169 316 204 562 4 22 8 51 11 65 8 50 17 237 17 345 -1
189 -3 215 -11 215 -5 0 -55 -109 -112 -242 -191 -452 -374 -800 -509 -971
-53 -68 -147 -157 -187 -177 -65 -32 -139 -31 -196 3 -199 118 -456 563 -768
1330 -13 31 -27 57 -31 57 -23 0 -19 -405 6 -570 2 -14 7 -45 10 -70 31 -223
79 -352 210 -563 26 -42 46 -79 43 -82 -8 -8 -109 25 -163 53 -163 85 -326
282 -459 552 -59 119 -142 308 -152 345 -1 6 -10 30 -19 55 -18 51 -95 287
-100 310 -7 30 -96 326 -112 373 -25 70 -42 59 -81 -53 -28 -81 -67 -215 -77
-269 -2 -9 -4 -16 -5 -16 -2 0 -3 -5 -26 -132 -22 -123 -27 -367 -9 -468 24
-135 75 -267 132 -343 14 -18 23 -35 21 -38 -5 -4 -88 48 -127 81 -137 113
-280 256 -411 410 -23 28 -52 61 -64 75 -12 14 -44 54 -71 90 -27 36 -52 67
-55 70 -6 5 -91 121 -181 248 -93 131 -313 469 -405 622 -54 91 -102 167 -106
168 -5 2 -8 7 -8 12 0 4 -21 44 -46 89 -44 77 -63 97 -65 69z m6421 -72 c0 -2
-7 -7 -16 -10 -8 -3 -12 -2 -9 4 6 10 25 14 25 6z m-6373 -43 c1 -24 0 -25 -6
-8 -7 17 -6 35 2 35 2 0 3 -12 4 -27z m6383 23 c0 -3 -4 -8 -10 -11 -5 -3 -10
-1 -10 4 0 6 5 11 10 11 6 0 10 -2 10 -4z m-6406 -56 c-6 -6 -10 -3 -10 10 0
13 4 16 10 10 7 -7 7 -13 0 -20z m6381 21 c3 -5 0 -13 -6 -17 -8 -5 -9 -3 -4
6 6 10 4 12 -9 7 -10 -4 -15 -3 -11 3 8 13 22 13 30 1z m-26 -45 c-3 -3 -11 5
-18 17 -13 21 -12 21 5 5 10 -10 16 -20 13 -22z m-6296 4 c9 -11 8 -11 -7 0
-18 14 -19 13 -13 -2 9 -24 0 -23 -13 1 -8 15 -7 19 5 17 8 -1 21 -8 28 -16z
m6343 -24 c1 -7 -4 -13 -12 -13 -9 0 -11 4 -4 12 5 7 8 15 5 18 -3 4 -2 5 2 2
4 -3 8 -11 9 -19z m-6396 -8 c0 -4 -4 -8 -9 -8 -6 0 -12 4 -15 8 -3 5 1 9 9 9
8 0 15 -4 15 -9z m6320 2 c0 -5 -2 -10 -4 -10 -3 0 -8 5 -11 10 -3 6 -1 10 4
10 6 0 11 -4 11 -10z m-6288 -28 c-4 -11 -1 -13 8 -7 9 5 11 4 6 -3 -11 -17
-23 -15 -28 6 -3 11 0 19 7 19 8 0 11 -7 7 -15z m6322 6 c-5 -7 -2 -9 7 -6 10
4 15 -1 16 -16 0 -11 -1 -15 -4 -8 -3 9 -9 10 -17 3 -10 -8 -12 -5 -10 12 3
27 3 27 10 27 3 0 2 -5 -2 -12z m-6260 -24 c3 -8 2 -12 -4 -9 -6 3 -10 10 -10
16 0 14 7 11 14 -7z m6183 -3 c0 -11 -5 -18 -9 -15 -4 3 -5 11 -1 19 7 21 12
19 10 -4z m-6203 -33 c-3 -4 1 -8 8 -9 10 0 10 -2 0 -6 -6 -2 -9 -10 -5 -16 3
-7 2 -8 -3 -4 -5 5 -9 12 -9 15 0 4 -3 12 -7 18 -4 6 -1 11 7 11 8 0 12 -4 9
-9z m6246 0 c0 -4 -4 -8 -9 -8 -6 0 -12 4 -15 8 -3 5 1 9 9 9 8 0 15 -4 15 -9z
m60 6 c0 -8 -19 -13 -24 -6 -3 5 1 9 9 9 8 0 15 -2 15 -3z m-6344 -13 c-4 -5
0 -11 6 -14 7 -3 3 -4 -9 -4 -17 1 -19 4 -11 14 12 15 22 18 14 4z m6247 -4
c3 -7 -3 -13 -14 -13 -13 0 -15 3 -7 13 6 7 12 13 13 13 2 0 5 -6 8 -13z m112
-8 c-3 -12 -7 -24 -10 -27 -3 -3 -3 5 -1 19 6 30 5 29 10 29 3 0 3 -10 1 -21z
m-6260 -19 c1 -10 -2 -17 -6 -14 -4 2 -7 13 -6 24 2 23 10 17 12 -10z m-93
-17 c-6 -3 -9 -10 -5 -16 4 -7 -1 -6 -10 2 -21 17 -21 17 6 18 12 0 16 -1 9
-4z m43 -3 c3 -6 -1 -7 -9 -4 -18 7 -21 14 -7 14 6 0 13 -4 16 -10z m47 -15
c2 3 5 -2 5 -10 0 -19 0 -19 -23 7 -12 14 -13 18 -3 10 9 -6 18 -10 21 -7z
m6142 -14 c-2 -3 -12 3 -22 13 -16 17 -16 18 5 5 12 -7 20 -15 17 -18z m-6263
2 c13 -16 12 -17 -3 -5 -9 8 -23 10 -29 6 -8 -4 -9 -3 -5 4 10 17 21 15 37 -5z
m59 13 c0 -2 -8 -10 -17 -17 -16 -13 -17 -12 -4 4 13 16 21 21 21 13z m6287
-20 c18 -21 18 -21 -3 -3 -11 9 -23 14 -26 11 -3 -3 -8 -1 -12 4 -11 18 25 8
41 -12z m48 14 c-3 -5 -12 -10 -18 -10 -7 0 -6 4 3 10 19 12 23 12 15 0z
m-6294 -27 c13 -16 12 -17 -3 -4 -10 7 -18 15 -18 17 0 8 8 3 21 -13z m6227
-18 c-3 -3 -9 2 -12 12 -6 14 -5 15 5 6 7 -7 10 -15 7 -18z m-6302 -7 c19 -23
19 -23 -2 -5 -11 9 -24 14 -29 10 -4 -5 -5 -2 -1 5 9 16 10 16 32 -10z m35 -1
c-10 -9 -11 -8 -5 6 3 10 9 15 12 12 3 -3 0 -11 -7 -18z m60 0 c-10 -9 -11 -8
-5 6 3 10 9 15 12 12 3 -3 0 -11 -7 -18z m6189 9 c0 -2 -8 -10 -17 -17 -16
-13 -17 -12 -4 4 13 16 21 21 21 13z m-6223 -31 c0 -8 -4 -15 -9 -15 -10 0
-11 14 -1 23 9 10 10 9 10 -8z m120 -12 c0 -8 -5 -9 -11 -4 -6 5 -19 7 -29 6
-9 -2 -15 0 -13 4 8 12 53 8 53 -6z m5995 -3 c11 -12 10 -12 -2 -3 -8 6 -23 9
-32 8 -10 -2 -20 0 -23 4 -8 14 44 6 57 -9z m183 11 c3 -5 2 -12 -3 -15 -5 -3
-9 1 -9 9 0 17 3 19 12 6z m-6351 -23 c-3 -4 -9 -8 -15 -8 -5 0 -9 4 -9 8 0 5
7 9 15 9 8 0 12 -4 9 -9z m32 -23 c-1 -8 -5 -17 -8 -21 -5 -4 -4 16 1 34 3 9
9 -1 7 -13z m134 10 c0 -2 -6 -8 -13 -14 -10 -8 -14 -7 -14 2 0 8 6 14 14 14
7 0 13 -1 13 -2z m25 -25 c3 -5 1 -10 -4 -10 -6 0 -11 5 -11 10 0 6 2 10 4 10
3 0 8 -4 11 -10z m5896 -33 c-10 -9 -11 -8 -5 6 3 10 9 15 12 12 3 -3 0 -11
-7 -18z m249 13 c0 -5 -2 -10 -4 -10 -3 0 -8 5 -11 10 -3 6 -1 10 4 10 6 0 11
-4 11 -10z m-6335 -20 c-3 -5 -12 -10 -18 -10 -7 0 -6 4 3 10 19 12 23 12 15
0z m200 0 c3 -6 -1 -7 -9 -4 -18 7 -21 14 -7 14 6 0 13 -4 16 -10z m6073 -25
c-3 -3 -9 2 -12 12 -6 14 -5 15 5 6 7 -7 10 -15 7 -18z m-6028 11 c0 -2 -8
-10 -17 -17 -16 -13 -17 -12 -4 4 13 16 21 21 21 13z m6031 -43 c13 -16 12
-17 -3 -4 -10 7 -18 15 -18 17 0 8 8 3 21 -13z m-6285 -25 c3 -4 -1 -5 -10 -4
-8 1 -18 5 -22 8 -3 4 1 5 10 4 8 -1 18 -5 22 -8z m6044 8 c0 -3 -4 -8 -10
-11 -5 -3 -10 -1 -10 4 0 6 5 11 10 11 6 0 10 -2 10 -4z m-4563 -31 c0 -8 -4
-12 -9 -9 -5 3 -6 10 -3 15 9 13 12 11 12 -6z m-1457 -9 c0 -3 -4 -8 -10 -11
-5 -3 -10 -1 -10 4 0 6 5 11 10 11 6 0 10 -2 10 -4z m35 -6 c3 -5 1 -10 -4
-10 -6 0 -11 5 -11 10 0 6 2 10 4 10 3 0 8 -4 11 -10z m40 0 c3 -5 1 -10 -4
-10 -6 0 -11 5 -11 10 0 6 2 10 4 10 3 0 8 -4 11 -10z m6005 0 c0 -5 -5 -10
-11 -10 -5 0 -7 5 -4 10 3 6 8 10 11 10 2 0 4 -4 4 -10z m40 6 c0 -3 -4 -8
-10 -11 -5 -3 -10 -1 -10 4 0 6 5 11 10 11 6 0 10 -2 10 -4z m75 -6 c3 -5 1
-10 -4 -10 -6 0 -11 5 -11 10 0 6 2 10 4 10 3 0 8 -4 11 -10z m-6022 -15 c-3
-9 -8 -14 -10 -11 -3 3 -2 9 2 15 9 16 15 13 8 -4z m6124 0 c0 -8 -4 -12 -9
-9 -5 3 -6 10 -3 15 9 13 12 11 12 -6z m-6157 1 c0 -2 -7 -7 -16 -10 -8 -3
-12 -2 -9 4 6 10 25 14 25 6z m90 -2 c0 -8 -19 -13 -24 -6 -3 5 1 9 9 9 8 0
15 -2 15 -3z m5887 -19 c0 -8 -4 -12 -9 -9 -5 3 -6 10 -3 15 9 13 12 11 12 -6z
m-6017 -10 c0 -2 -9 -3 -19 -2 -11 0 -18 5 -15 9 4 6 34 0 34 -7z m220 5 c0
-5 -5 -10 -11 -10 -5 0 -7 5 -4 10 3 6 8 10 11 10 2 0 4 -4 4 -10z m-245 -29
c3 -5 2 -12 -3 -15 -5 -3 -9 1 -9 9 0 17 3 19 12 6z m161 -13 c3 -4 -1 -5 -10
-4 -8 1 -18 5 -22 8 -3 4 1 5 10 4 8 -1 18 -5 22 -8z m48 4 c3 -5 -1 -9 -9 -9
-8 0 -12 4 -9 9 3 4 7 8 9 8 2 0 6 -4 9 -8z m1171 -1 c-9 -8 -36 -10 -30 -2 2
4 11 8 20 8 8 0 13 -3 10 -6z m4520 0 c-9 -8 -36 -10 -30 -2 2 4 11 8 20 8 8
0 13 -3 10 -6z m258 -16 c-7 -21 -12 -19 -10 4 0 11 5 18 9 15 4 -3 5 -11 1
-19z m-6077 -21 c1 -9 0 -13 -4 -10 -3 4 -7 14 -8 22 -1 9 0 13 4 10 3 -4 7
-14 8 -22z m4679 7 c3 -5 2 -12 -3 -15 -5 -3 -9 1 -9 9 0 17 3 19 12 6z m1079
-13 c-3 -4 -11 -5 -19 -1 -21 7 -19 12 4 10 11 0 18 -5 15 -9z m79 -13 c-7
-21 -12 -19 -10 4 0 11 5 18 9 15 4 -3 5 -11 1 -19z m-5893 -5 c0 -5 -5 -10
-11 -10 -5 0 -7 5 -4 10 3 6 8 10 11 10 2 0 4 -4 4 -10z m6054 2 c3 -5 -1 -9
-9 -9 -8 0 -12 4 -9 9 3 4 7 8 9 8 2 0 6 -4 9 -8z m-4734 -42 c0 -5 -5 -10
-11 -10 -5 0 -7 5 -4 10 3 6 8 10 11 10 2 0 4 -4 4 -10z m-1323 -25 c0 -8 -4
-12 -9 -9 -5 3 -6 10 -3 15 9 13 12 11 12 -6z m4598 -204 c3 -5 2 -12 -3 -15
-5 -3 -9 1 -9 9 0 17 3 19 12 6z m-4115 -26 c14 -19 14 -19 -2 -6 -10 7 -18
18 -18 24 0 6 1 8 3 6 1 -2 9 -13 17 -24z m-46 -23 c3 -5 -1 -9 -9 -9 -8 0
-12 4 -9 9 3 4 7 8 9 8 2 0 6 -4 9 -8z m4321 -201 c3 -5 2 -12 -3 -15 -5 -3
-9 1 -9 9 0 17 3 19 12 6z"/>
<path d="M1273 4130 c3 -30 13 -102 21 -160 9 -58 18 -120 21 -137 5 -36 12
-81 20 -140 24 -172 64 -372 81 -404 7 -15 25 -30 39 -33 14 -4 25 -10 25 -15
0 -5 42 -40 92 -77 51 -38 100 -74 108 -81 8 -6 62 -46 119 -89 58 -42 109
-81 115 -85 6 -5 85 -66 176 -136 223 -172 304 -254 357 -363 78 -159 139
-339 253 -735 126 -440 152 -503 291 -716 115 -177 258 -336 363 -404 56 -36
110 -52 121 -36 3 6 1 11 -4 11 -6 0 -11 4 -11 10 0 5 -24 47 -53 92 -219 339
-391 717 -444 973 -22 109 -22 255 0 321 30 88 102 155 192 179 17 5 37 10 45
12 8 2 57 5 109 7 73 2 95 5 102 18 9 16 5 257 -6 338 -13 97 -48 264 -65 316
-11 30 -17 54 -15 54 5 0 -57 146 -88 206 -57 113 -168 238 -266 301 -77 49
-132 69 -351 125 -322 82 -465 124 -660 196 -310 114 -521 257 -638 432 -53
80 -55 81 -49 20z"/>
<path d="M5722 4120 c-90 -138 -233 -254 -432 -351 -211 -102 -442 -178 -900
-294 -102 -25 -208 -57 -237 -70 -278 -126 -445 -421 -518 -915 -10 -68 -15
-335 -6 -348 6 -10 33 -14 90 -14 191 0 312 -69 356 -201 21 -62 24 -213 6
-302 -54 -261 -201 -589 -428 -957 -47 -75 -84 -140 -82 -145 2 -4 15 -7 29
-5 117 16 365 283 525 567 16 28 38 68 50 90 26 48 90 246 185 575 147 505
230 708 333 812 47 48 188 162 383 311 49 37 94 71 99 75 6 4 91 68 190 141
99 73 186 142 194 152 7 11 21 19 31 19 30 0 54 72 84 250 11 67 16 98 21 130
2 19 6 44 9 55 2 11 7 47 12 80 4 33 8 62 9 65 0 3 5 31 9 64 4 32 9 68 12 80
7 38 24 161 24 174 0 24 -16 11 -48 -38z"/>
<path d="M1455 3078 c2 -13 21 -97 41 -188 42 -193 86 -337 114 -372 15 -19
31 -27 69 -30 183 -18 501 -312 767 -710 122 -181 159 -221 178 -190 4 7 -25
107 -44 147 -5 11 -30 69 -55 130 -25 60 -98 226 -163 368 l-116 258 -393 304
c-216 168 -395 305 -398 305 -3 0 -3 -10 0 -22z"/>
<path d="M5510 3049 c-36 -28 -78 -61 -95 -74 -16 -13 -86 -67 -155 -120 -69
-53 -138 -107 -155 -120 -16 -13 -93 -73 -170 -133 l-140 -108 -107 -235
c-186 -407 -285 -649 -273 -670 20 -32 58 10 178 192 122 187 211 294 381 462
154 152 291 238 400 251 47 6 56 15 84 81 35 86 139 525 123 525 -3 0 -35 -23
-71 -51z"/>
<path d="M3434 2021 c-68 -17 -152 -69 -223 -136 -96 -91 -130 -142 -119 -175
5 -14 31 -92 58 -175 68 -209 75 -227 129 -340 85 -174 175 -275 247 -275 73
0 169 145 289 439 53 129 125 328 123 339 -1 4 2 15 7 25 10 24 -13 57 -109
153 -106 106 -186 146 -295 150 -42 2 -90 0 -107 -5z m125 -10 c3 -1 -3 -7
-13 -14 -17 -13 -17 -15 7 -43 24 -27 27 -28 42 -13 15 15 15 18 -2 35 -17 17
-17 18 1 11 12 -5 22 -3 27 5 4 7 11 9 16 5 4 -5 1 -12 -6 -16 -16 -10 -6 -31
15 -31 8 0 14 -5 14 -11 0 -6 -7 -9 -15 -5 -21 8 -45 -3 -45 -20 0 -12 -4 -12
-20 -2 -30 19 -75 -1 -75 -32 0 -21 5 -25 33 -27 22 -1 36 5 46 19 8 11 17 15
20 10 3 -6 0 -12 -6 -15 -17 -5 9 -57 29 -57 20 0 27 28 13 45 -10 12 -9 15 8
15 26 0 46 25 39 50 -5 21 27 48 37 31 3 -5 -1 -11 -9 -15 -8 -3 -15 -17 -15
-31 0 -21 5 -25 29 -25 16 0 37 8 47 18 17 16 17 16 12 -5 -3 -13 0 -27 7 -33
8 -6 11 -18 8 -26 -6 -18 25 -30 39 -16 8 8 7 16 -3 29 -7 10 -1 7 13 -6 24
-20 25 -25 12 -38 -16 -17 -16 -16 -8 -37 4 -9 18 -16 34 -16 33 0 44 -26 22
-52 -11 -14 -12 -21 -3 -32 9 -11 6 -17 -14 -30 -21 -14 -24 -20 -15 -36 10
-19 7 -20 -34 -20 -35 0 -48 -5 -60 -22 -14 -20 -14 -24 -1 -37 13 -14 18 -13
46 3 17 10 33 16 35 13 3 -3 -4 -8 -15 -12 -12 -3 -21 -12 -21 -20 0 -8 -7
-11 -19 -8 -20 5 -55 -33 -45 -49 9 -14 44 -9 50 7 4 8 14 15 23 15 14 -1 14
-2 -1 -14 -10 -7 -19 -26 -19 -42 -1 -24 -3 -25 -6 -6 -5 27 -38 30 -52 3 -6
-10 -8 -21 -5 -24 3 -3 -3 -3 -15 0 -25 6 -40 -22 -22 -40 10 -9 16 -8 27 7
13 18 14 19 14 2 0 -13 5 -17 20 -13 17 4 18 2 9 -15 -10 -18 -11 -19 -23 -2
-12 16 -14 16 -36 -6 -21 -21 -21 -24 -6 -32 10 -5 24 -7 32 -4 8 3 13 2 10
-3 -8 -12 -59 -21 -71 -11 -5 4 -22 10 -37 14 -22 5 -30 2 -39 -16 -10 -19 -8
-24 12 -41 27 -21 37 -79 12 -70 -8 3 -11 13 -7 25 13 42 -51 67 -78 30 -11
-15 -17 -16 -36 -6 -19 9 -20 13 -8 17 16 6 22 38 10 50 -4 3 -16 2 -26 -4
-15 -8 -19 -18 -15 -39 5 -22 2 -29 -14 -33 -28 -7 -21 -41 9 -45 13 -2 33 3
46 11 18 12 25 13 40 2 10 -8 24 -11 31 -9 8 4 15 -3 17 -17 4 -27 45 -42 67
-25 12 9 12 7 2 -12 -7 -12 -16 -20 -21 -17 -15 9 -38 -24 -34 -47 2 -13 2
-17 -2 -10 -8 16 -55 15 -79 -1 -27 -20 -9 -40 31 -35 l34 4 -22 -21 c-21 -20
-23 -20 -40 -3 -14 14 -23 16 -36 9 -14 -7 -21 -5 -32 12 -8 12 -14 29 -15 37
0 8 -9 15 -20 15 -11 0 -27 9 -37 20 -13 17 -14 21 -3 28 21 11 6 37 -21 37
-16 0 -24 -6 -24 -17 0 -12 -3 -14 -11 -6 -16 16 11 56 28 42 6 -6 22 -9 35
-7 17 2 23 10 23 28 0 20 -6 26 -28 28 -18 2 -29 -2 -33 -13 -4 -10 -13 -13
-25 -10 -12 4 -21 1 -25 -10 -5 -13 -9 -11 -20 11 -8 15 -11 30 -8 33 4 3 9 0
11 -6 3 -7 18 -13 34 -13 22 0 29 5 29 19 0 31 -26 46 -52 29 -19 -13 -24 -13
-39 0 -13 12 -14 19 -6 42 12 30 -3 60 -28 60 -14 0 -27 25 -18 34 3 3 12 -2
18 -11 11 -15 16 -16 41 -3 16 8 38 14 49 14 11 1 21 6 22 11 1 6 -6 10 -17 9
-10 0 -19 2 -18 5 3 35 -26 43 -48 14 -12 -15 -13 -16 -8 -2 9 29 -18 34 -39
8 -16 -19 -19 -20 -13 -4 5 14 0 24 -16 37 l-23 19 26 -6 c19 -5 28 -2 32 9 4
9 12 13 20 10 7 -2 22 5 32 17 19 20 19 22 2 34 -9 6 -17 18 -17 25 0 7 8 3
18 -8 24 -29 89 -35 78 -7 -4 10 3 19 18 25 18 6 23 14 19 29 -11 43 -69 29
-60 -15 3 -19 1 -21 -14 -11 -17 10 -16 12 2 35 24 31 24 49 0 61 -34 18 -70
-41 -43 -71 8 -10 10 -18 5 -18 -19 0 -32 26 -26 49 4 14 1 26 -8 32 -20 13
-29 11 -29 -6 0 -9 -6 -12 -15 -9 -11 5 -12 10 -5 18 13 17 -7 36 -39 36 -19
0 -22 3 -12 9 8 5 12 19 9 35 -3 17 -1 26 7 26 7 0 18 7 26 16 10 12 10 20 1
35 -17 26 -15 33 4 14 12 -11 20 -13 29 -5 10 8 15 8 20 -1 5 -7 24 -9 51 -6
31 3 44 1 48 -10 5 -11 10 -11 27 -3 29 16 32 9 34 -60 2 -69 11 -83 51 -78
23 2 29 8 29 28 0 16 -8 29 -23 36 -13 7 -19 15 -14 18 6 3 13 2 17 -4 9 -15
41 -12 54 4 9 11 10 20 1 35 -13 26 -35 27 -52 2 -12 -17 -16 -17 -33 -5 -18
14 -18 14 2 14 26 0 57 35 50 55 -8 20 -61 20 -78 -1 -11 -14 -13 -14 -21 0
-10 18 -48 22 -48 5 0 -6 -7 -3 -16 5 -8 9 -20 16 -26 16 -5 0 -7 7 -4 16 4 9
1 23 -5 30 -6 8 -10 14 -8 15 2 0 13 2 24 4 11 2 21 9 23 14 2 6 12 11 23 11
11 0 22 6 25 14 3 8 12 12 19 10 7 -3 16 0 20 6 5 8 11 4 19 -12 6 -12 19 -24
28 -26 19 -4 51 26 45 43 -4 10 10 12 42 6z m-301 -132 c-30 -19 -43 -9 -18
14 20 19 26 21 28 9 2 -8 -2 -18 -10 -23z m-129 -128 c-13 -10 -26 -17 -29
-14 -3 2 3 9 13 14 9 6 17 17 17 26 0 13 3 14 12 5 8 -8 5 -16 -13 -31z m4
-61 c-3 -11 0 -27 7 -35 7 -9 8 -15 2 -15 -5 0 -15 14 -21 31 -14 40 -14 39 3
39 9 0 12 -7 9 -20z m101 -91 c-16 -18 -14 -49 4 -49 5 0 7 -11 4 -25 -3 -19
-11 -25 -29 -25 -13 0 -21 -4 -18 -10 3 -5 2 -10 -3 -10 -6 0 -12 7 -16 15 -4
11 1 15 19 15 31 0 39 14 23 40 -10 16 -20 20 -40 16 -16 -3 -28 -1 -28 3 0 5
-3 18 -7 28 -6 17 -5 17 15 -1 20 -18 23 -18 47 -2 14 9 25 21 25 27 0 6 5 7
11 4 7 -5 5 -13 -7 -26z m489 -363 c3 -8 -4 -18 -17 -24 -22 -10 -23 -9 -12
14 12 27 21 30 29 10z m-343 -156 c0 -5 -4 -10 -10 -10 -5 0 -10 5 -10 10 0 6
5 10 10 10 6 0 10 -4 10 -10z m60 -93 c0 -4 -7 -2 -15 7 -8 8 -15 21 -15 28 1
14 30 -20 30 -35z m64 -43 c3 -8 2 -12 -4 -9 -6 3 -10 10 -10 16 0 14 7 11 14
-7z"/>
<path d="M3387 1969 c-14 -8 -16 -14 -6 -25 16 -19 36 -18 48 5 16 30 -6 41
-42 20z"/>
<path d="M3503 1963 c-7 -2 -13 -13 -13 -24 0 -20 25 -25 49 -10 12 8 12 12 2
25 -14 17 -18 18 -38 9z"/>
<path d="M3338 1939 c-27 -15 -22 -48 7 -55 14 -4 29 -4 32 -1 3 3 12 -1 20
-9 13 -12 17 -12 35 0 11 8 26 12 34 9 19 -7 28 21 14 46 -14 27 -36 27 -50 1
-6 -11 -17 -20 -25 -20 -8 0 -19 9 -25 20 -12 23 -18 24 -42 9z"/>
<path d="M3677 1857 c-9 -7 -18 -22 -20 -35 -2 -12 -14 -30 -26 -39 -18 -12
-22 -22 -18 -47 2 -17 0 -38 -6 -47 -15 -24 -1 -52 23 -46 13 3 24 -1 30 -14
11 -20 60 -27 60 -9 0 6 5 10 10 10 6 0 10 -7 10 -15 0 -9 12 -21 26 -27 28
-13 44 -1 44 34 0 19 -28 50 -39 44 -4 -3 -5 8 -3 25 3 22 0 29 -12 29 -22 0
-32 -28 -18 -51 16 -26 -2 -32 -23 -9 -10 12 -13 20 -7 20 16 0 15 27 -1 33
-8 3 -20 1 -28 -4 -11 -7 -12 -12 -1 -29 8 -14 9 -20 1 -20 -6 0 -13 9 -16 20
-3 11 -13 20 -22 20 -9 1 -2 7 16 15 17 7 40 11 51 9 10 -3 24 1 31 9 6 8 20
13 31 10 11 -3 31 -2 45 1 20 5 26 12 23 29 -3 19 -9 22 -48 22 -39 0 -45 -2
-42 -20 4 -17 2 -17 -15 4 -21 26 -46 21 -37 -7 5 -14 3 -13 -10 3 -15 18 -15
20 4 27 13 5 20 16 20 32 0 31 -12 39 -33 23z"/>
<path d="M3727 1863 c-4 -3 -7 -17 -7 -30 0 -20 5 -23 35 -23 28 0 35 4 35 20
0 27 -46 51 -63 33z"/>
<path d="M3530 1825 c0 -8 5 -15 10 -15 6 0 10 -6 10 -14 0 -25 26 -39 49 -26
18 9 20 14 10 33 -15 28 -28 37 -56 37 -14 0 -23 -6 -23 -15z"/>
<path d="M3236 1813 c-3 -4 -6 -15 -6 -25 0 -10 -6 -18 -14 -18 -7 0 -19 -6
-25 -14 -10 -12 -8 -19 8 -35 41 -41 91 -11 54 32 -17 20 -17 20 0 14 10 -4
23 -7 28 -7 15 0 10 -32 -7 -51 -17 -19 -13 -49 6 -49 6 0 15 11 21 24 6 13
20 27 31 29 28 8 22 90 -6 96 -11 2 -25 -5 -33 -14 -11 -16 -13 -16 -18 -2 -7
17 -30 29 -39 20z"/>
<path d="M3366 1784 c-9 -24 -7 -54 4 -54 20 0 10 -19 -12 -22 -31 -4 -34 -26
-4 -39 14 -7 29 -10 32 -7 3 3 7 31 10 60 3 40 1 58 -9 67 -12 9 -16 8 -21 -5z"/>
<path d="M3520 1737 c-20 -16 -15 -77 7 -77 14 0 14 -3 -3 -19 -17 -16 -20
-16 -25 -2 -4 10 -21 16 -52 18 -39 2 -47 0 -47 -15 0 -18 34 -62 48 -62 4 0
16 6 27 14 24 17 85 10 85 -10 0 -14 11 -18 45 -14 14 1 17 -1 10 -9 -17 -17
-6 -91 14 -91 9 0 21 -11 28 -25 9 -20 8 -25 -3 -25 -16 0 -33 -30 -27 -47 3
-7 11 -13 20 -13 12 0 12 -2 -2 -16 -18 -19 -16 -33 8 -48 12 -8 22 -8 35 0
26 17 27 44 2 51 l-21 6 23 24 c23 24 23 25 4 39 -11 8 -15 14 -8 14 21 0 26
49 7 70 -23 26 -33 25 -38 -2 -3 -13 -5 -7 -4 13 1 20 -5 44 -12 53 -9 11 -10
16 -2 16 6 0 16 -11 23 -24 12 -28 34 -40 43 -25 10 14 -18 70 -32 65 -7 -3
-15 4 -18 15 -4 12 -16 19 -33 20 -56 2 -65 4 -69 16 -2 6 5 14 16 18 25 8 39
64 20 76 -20 12 -51 10 -69 -4z"/>
<path d="M3812 1729 c-30 -12 -40 -39 -18 -54 21 -16 56 -8 56 12 0 10 9 13
27 11 20 -2 29 2 31 15 5 23 -28 35 -42 14 -10 -13 -14 -13 -22 -2 -6 9 -16
11 -32 4z"/>
<path d="M3860 1671 c0 -20 26 -36 35 -21 8 13 -6 40 -21 40 -8 0 -14 -9 -14
-19z"/>
<path d="M3819 1655 c-7 -7 2 -65 10 -65 18 1 32 20 29 41 -3 22 -27 37 -39
24z"/>
<path d="M3712 1578 c2 -17 11 -24 31 -26 31 -4 36 14 10 34 -28 21 -45 17
-41 -8z"/>
<path d="M3487 1584 c-14 -14 -6 -31 20 -43 29 -13 46 -1 40 29 -2 16 -48 26
-60 14z"/>
<path d="M3386 1548 c-32 -45 -9 -102 35 -91 15 4 20 3 15 -5 -10 -17 21 -27
38 -13 12 10 15 8 18 -11 2 -13 1 -38 -3 -55 -4 -18 -3 -33 2 -33 5 0 9 -5 9
-11 0 -8 -5 -7 -16 1 -12 11 -18 10 -31 -3 -13 -13 -14 -19 -3 -31 16 -20 50
-21 50 -2 0 9 7 12 21 9 40 -11 45 46 8 85 -15 17 -16 21 -3 26 20 8 34 48 22
63 -10 12 -38 7 -49 -10 -4 -5 -10 -4 -14 3 -4 7 1 13 14 17 29 8 26 32 -6 44
-33 12 -49 -1 -34 -29 6 -10 7 -22 4 -26 -13 -13 -30 38 -19 57 8 13 7 20 -4
27 -23 15 -38 12 -54 -12z"/>
<path d="M3549 1529 c-16 -16 -18 -23 -8 -35 6 -8 18 -14 25 -14 17 0 18 -12
2 -29 -11 -10 -9 -15 6 -27 19 -14 19 -14 -1 -14 -32 0 -37 -16 -13 -40 26
-26 45 -21 45 12 1 15 7 34 15 43 13 15 12 19 -9 36 -12 10 -20 23 -16 29 9
15 -3 60 -15 60 -6 0 -19 -9 -31 -21z"/>
<path d="M3720 1525 c-10 -12 -10 -21 -1 -42 8 -18 9 -29 1 -37 -16 -16 -12
-36 8 -36 27 0 32 9 22 36 -6 15 -6 24 0 24 5 0 14 9 20 19 7 15 6 23 -6 35
-19 20 -28 20 -44 1z"/>
<path d="M3288 1490 c-30 -30 -30 -50 0 -50 16 0 72 54 72 69 0 18 -45 7 -72
-19z"/>
<path d="M3334 1455 c-10 -26 4 -47 26 -40 15 5 18 3 14 -8 -3 -8 0 -18 6 -22
6 -4 2 -13 -12 -26 l-23 -19 24 -20 c13 -12 31 -19 40 -18 23 5 26 39 5 55
-10 7 -13 13 -8 13 6 0 19 -6 30 -14 20 -15 44 -5 44 20 0 17 -53 54 -78 54
-11 0 -22 8 -25 20 -6 23 -35 27 -43 5z"/>
<path d="M3293 1348 c-11 -19 -11 -92 1 -100 15 -10 35 10 29 31 -2 9 3 23 11
30 12 10 13 18 5 32 -11 22 -34 25 -46 7z"/>
<path d="M3566 1312 c-14 -27 -14 -31 0 -43 23 -19 49 1 49 37 0 40 -29 44
-49 6z"/>
<path d="M3340 1300 c-18 -12 -3 -43 24 -48 14 -3 17 2 14 24 -3 31 -16 38
-38 24z"/>
<path d="M3407 1282 c-32 -35 -11 -77 35 -70 31 4 32 54 2 74 -18 13 -23 12
-37 -4z"/>
<path d="M3546 1245 c4 -9 11 -14 16 -13 15 5 11 23 -6 26 -11 2 -14 -2 -10
-13z"/>
<path d="M3523 1153 c-17 -6 -17 -53 0 -53 18 0 58 30 52 39 -6 11 -37 19 -52
14z"/>
<path d="M3430 1128 c0 -7 -3 -23 -6 -34 -4 -16 0 -23 15 -27 24 -6 54 24 49
50 -4 21 -58 32 -58 11z"/>
<path d="M3573 1108 c-4 -7 -8 -16 -8 -20 0 -12 -15 -22 -15 -10 0 21 -47 13
-62 -10 -31 -50 12 -81 49 -35 11 13 27 21 40 19 13 -2 27 5 37 20 15 21 15
24 -1 35 -21 16 -30 16 -40 1z"/>
</g>
</svg>
