<?xml version="1.0" encoding="UTF-8" standalone="no"?>
<!-- Generator: Adobe Illustrator 16.0.0, SVG Export Plug-In . SVG Version: 6.00 Build 0)  -->

<svg
   version="1.1"
   id="svg5"
   inkscape:version="1.2.1 (9c6d41e410, 2022-07-14)"
   sodipodi:docname="tiny-logo.svg"
   x="0px"
   y="0px"
   width="515"
   height="515"
   viewBox="0 0 514.99998 515"
   enable-background="new 0 0 595.275 841.89"
   xml:space="preserve"
   xmlns:inkscape="http://www.inkscape.org/namespaces/inkscape"
   xmlns:sodipodi="http://sodipodi.sourceforge.net/DTD/sodipodi-0.dtd"
   xmlns="http://www.w3.org/2000/svg"
   xmlns:svg="http://www.w3.org/2000/svg"><defs
   id="defs280" />
<sodipodi:namedview
   inkscape:cy="234.7776"
   inkscape:cx="267.1845"
   inkscape:zoom="1.4503087"
   showgrid="false"
   borderopacity="0.25"
   bordercolor="#000000"
   pagecolor="#ffffff"
   id="namedview7"
   inkscape:window-height="1001"
   inkscape:current-layer="layer1"
   inkscape:window-width="1920"
   inkscape:deskcolor="#d1d1d1"
   inkscape:pagecheckerboard="0"
   inkscape:window-maximized="1"
   inkscape:pageopacity="0.0"
   inkscape:showpageshadow="2"
   inkscape:window-y="-9"
   inkscape:window-x="-9"
   inkscape:document-units="mm"
   showguides="true">
	<sodipodi:guide
   position="320.32431,60.110205"
   orientation="1,0"
   id="guide1571"
   inkscape:locked="false" /></sodipodi:namedview>
<g
   id="layer1"
   inkscape:label="Calque 1"
   inkscape:groupmode="layer">
	
		<linearGradient
   id="path2516_1_"
   gradientUnits="userSpaceOnUse"
   x1="-759.43237"
   y1="2142.9692"
   x2="-759.43402"
   y2="2079.8784"
   gradientTransform="matrix(2.8346,0,0,-2.8346,2411.6352,6057.572)">
		<stop
   offset="0"
   style="stop-color:#000000;stop-opacity:0.493"
   id="stop3" />
		<stop
   offset="0.5"
   style="stop-color:#70665E;stop-opacity:0.7451"
   id="stop5" />
		<stop
   offset="1"
   style="stop-color:#F4CCB1"
   id="stop7" />
	</linearGradient>
	
		<path
   id="path2516"
   sodipodi:nodetypes="ccccsscscscsscccccc"
   fill="url(#path2516_1_)"
   stroke="#000000"
   stroke-width="1.466"
   stroke-linecap="round"
   stroke-linejoin="round"
   stroke-miterlimit="10.2"
   d="m 22.907617,41.199218 c 0,0 69.419001,125.602992 118.760003,147.142992 0,0 -35.896,-23.608 -6.419,-103.245992 3.623,-17.242 21.225,120.923992 79.095,126.910992 -3.279,-7.066 -7.618,-12.249 -10.287,-17.339 -4.523,-8.628 -6.646,-15.964 -7.968,-22.815 -3.068,-15.895 -4.569,-29.735 -3.436,-54.852 0.743,0.967 9.345,23.747 20.476,46.898 13.813,28.733 31.721,58.731 45.784,57.167 14.064,1.444 31.971,-28.554 45.785,-57.287 11.131,-23.152 19.732,-45.932 20.476,-46.899 1.134,25.117 -0.367,38.957 -3.436,54.852 -1.323,6.851 -3.444,14.186 -7.968,22.814 -2.669,5.091 -7.008,10.273 -10.287,17.339 57.87,-5.987 75.472,-144.152992 79.095,-126.911992 29.477,79.638992 -6.419,103.245992 -6.419,103.245992 49.341,-21.539 118.76,-147.141992 118.76,-147.141992 0,0 37.059,178.224992 -236.006,217.586992 C -14.150383,219.42321 22.907617,41.199218 22.907617,41.199218 Z"
   style="fill:url(#path2516_1_)" />
	
		<linearGradient
   id="path2528_1_"
   gradientUnits="userSpaceOnUse"
   x1="-818.38647"
   y1="2016.1021"
   x2="-760.00232"
   y2="2016.1021"
   gradientTransform="matrix(2.8346,0,0,-2.8346,2411.6352,6057.572)">
		<stop
   offset="0"
   style="stop-color:#542C09"
   id="stop11" />
		<stop
   offset="1"
   style="stop-color:#EE770E"
   id="stop13" />
	</linearGradient>
	
		<path
   id="path2528"
   sodipodi:nodetypes="cscccccccc"
   fill="url(#path2528_1_)"
   stroke="#000000"
   stroke-width="1.466"
   stroke-linecap="round"
   stroke-linejoin="round"
   stroke-miterlimit="10.2"
   d="m 98.590621,240.53121 c 1.208,8.159 2.188999,14.347 3.015999,19.045 2.396,13.638 3.475,14.735 4.929,15.122 -0.152,-0.48 60.326,44.324 66.1,50.791 18.021,16.094 31.902,97.635 41.105,106.867 5.848,12.559 29.222,45.082 41.482,44.207 -0.868,0.432 -85.017,-125.584 -5.175,-118.506 2.063,-3.492 2.882,-83.352 -45.72,-95.513 -48.602,-12.163 -93.51,-22.89 -110.450002,-53.855 z"
   style="fill:url(#path2528_1_)" />
	
		<linearGradient
   id="path13678_1_"
   gradientUnits="userSpaceOnUse"
   x1="-794.89917"
   y1="2036.8853"
   x2="-771.56122"
   y2="2036.8853"
   gradientTransform="matrix(2.8346,0,0,-2.8346,2411.6352,6057.572)">
		<stop
   offset="0"
   style="stop-color:#FFFFFF;stop-opacity:0.6761"
   id="stop17" />
		<stop
   offset="1"
   style="stop-color:#FFFFFF"
   id="stop19" />
	</linearGradient>
	
		<path
   id="path13678"
   sodipodi:nodetypes="csscc"
   fill="url(#path13678_1_)"
   stroke="#000000"
   stroke-width="0.3971"
   stroke-linecap="round"
   stroke-linejoin="round"
   stroke-miterlimit="10.2"
   d="m 158.93962,259.25721 c 0.616,-0.025 1.917,20.074 7.994,29.761 14.235,22.689 53.59,21.354 55.96,16.688 5.466,-10.764 -11.129,-32.041 -21.753,-38.348 -14.047,-6.522 -27.884,-9.414 -42.201,-8.101 z"
   style="fill:url(#path13678_1_)" />
	
		<linearGradient
   id="path489_1_"
   gradientUnits="userSpaceOnUse"
   x1="-800.8313"
   y1="2013.3042"
   x2="-789.82159"
   y2="2023.754"
   gradientTransform="matrix(2.8346,0,0,-2.8346,2411.6352,6057.572)">
		<stop
   offset="0"
   style="stop-color:#542C09"
   id="stop23" />
		<stop
   offset="1"
   style="stop-color:#EE770E"
   id="stop25" />
	</linearGradient>
	
		<path
   id="path489"
   sodipodi:nodetypes="ccsssc"
   fill="url(#path489_1_)"
   stroke="#000000"
   stroke-width="0.4685"
   stroke-linejoin="round"
   stroke-miterlimit="10.2"
   d="m 107.06862,287.03821 57.755,44.729 c 0,0 30.23,64.727 27.962,66.455 -3.531,2.691 -9.516,-11.311 -20.122,-25.189 -15.228,-19.926 -37.267,-42.703 -52.27,-41.734 -5.16,0.333 -13.319,-44.257 -13.325,-44.261 z"
   style="fill:url(#path489_1_)" />
	
		<linearGradient
   id="path2528-6_1_"
   gradientUnits="userSpaceOnUse"
   x1="-818.00659"
   y1="2016.1021"
   x2="-759.62189"
   y2="2016.1021"
   gradientTransform="matrix(-2.8346,0,0,-2.8346,-1892.7315,6057.4509)">
		<stop
   offset="0"
   style="stop-color:#542C09"
   id="stop29" />
		<stop
   offset="1"
   style="stop-color:#EE770E"
   id="stop31" />
	</linearGradient>
	
		<path
   id="path2528-6"
   sodipodi:nodetypes="cscccccccc"
   fill="url(#path2528-6_1_)"
   stroke="#000000"
   stroke-width="1.466"
   stroke-linecap="round"
   stroke-linejoin="round"
   stroke-miterlimit="10.2"
   d="m 419.23662,240.41021 c -1.208,8.16 -2.189,14.347 -3.016,19.045 -2.396,13.637 -3.475,14.735 -4.929,15.124 0.152,-0.48 -60.326,44.322 -66.1,50.791 -18.021,16.092 -31.902,97.633 -41.105,106.867 -5.848,12.559 -29.222,45.082 -41.482,44.205 0.868,0.432 85.017,-125.584 5.174,-118.506 -2.063,-3.492 -2.881,-83.35 45.721,-95.513 48.602,-12.163 93.51,-22.89 110.45,-53.855 z"
   style="fill:url(#path2528-6_1_)" />
	
		<linearGradient
   id="path13678-1_1_"
   gradientUnits="userSpaceOnUse"
   x1="-794.5188"
   y1="2036.8843"
   x2="-771.18182"
   y2="2036.8843"
   gradientTransform="matrix(-2.8346,0,0,-2.8346,-1892.7315,6057.4509)">
		<stop
   offset="0"
   style="stop-color:#FFFFFF;stop-opacity:0.6761"
   id="stop35" />
		<stop
   offset="1"
   style="stop-color:#FFFFFF"
   id="stop37" />
	</linearGradient>
	
		<path
   id="path13678-1"
   sodipodi:nodetypes="csscc"
   fill="url(#path13678-1_1_)"
   stroke="#000000"
   stroke-width="0.3971"
   stroke-linecap="round"
   stroke-linejoin="round"
   stroke-miterlimit="10.2"
   d="m 358.88762,259.13721 c -0.616,-0.025 -1.917,20.075 -7.994,29.761 -14.236,22.691 -53.59,21.354 -55.96,16.688 -5.466,-10.762 11.129,-32.041 21.753,-38.348 14.047,-6.522 27.884,-9.414 42.201,-8.101 z"
   style="fill:url(#path13678-1_1_)" />
	
		<linearGradient
   id="path489-5_1_"
   gradientUnits="userSpaceOnUse"
   x1="-800.45093"
   y1="2013.3042"
   x2="-789.44312"
   y2="2023.7522"
   gradientTransform="matrix(-2.8346,0,0,-2.8346,-1892.7315,6057.4509)">
		<stop
   offset="0"
   style="stop-color:#542C09"
   id="stop41" />
		<stop
   offset="1"
   style="stop-color:#EE770E"
   id="stop43" />
	</linearGradient>
	
		<path
   id="path489-5"
   sodipodi:nodetypes="ccsssc"
   fill="url(#path489-5_1_)"
   stroke="#000000"
   stroke-width="0.4685"
   stroke-linejoin="round"
   stroke-miterlimit="10.2"
   d="m 410.75862,286.91721 -57.755,44.73 c 0,0 -30.23,64.725 -27.962,66.455 3.531,2.691 9.516,-11.311 20.122,-25.191 15.228,-19.926 37.267,-42.703 52.27,-41.734 5.16,0.334 13.318,-44.256 13.325,-44.26 z"
   style="fill:url(#path489-5_1_)" />
	
<path
   style="fill:none;fill-opacity:1;stroke:none;stroke-width:19.8274;stroke-linejoin:round;stroke-miterlimit:10.2;stroke-dasharray:none;stroke-opacity:1;paint-order:fill markers stroke"
   d="m 67.836108,49.432198 c 1.95023,-128.714792 372.005262,-94.58587 366.154592,0"
   id="path1542"
   sodipodi:nodetypes="cc" /><text
   xml:space="preserve"
   style="font-style:normal;font-variant:normal;font-weight:normal;font-stretch:normal;font-size:100.422px;font-family:'MS PGothic';-inkscape-font-specification:'MS PGothic, Normal';font-variant-ligatures:normal;font-variant-caps:normal;font-variant-numeric:normal;font-variant-east-asian:normal;fill:none;fill-opacity:1;stroke:none;stroke-width:19.8274;stroke-linejoin:round;stroke-miterlimit:10.2;stroke-dasharray:none;stroke-opacity:1;paint-order:fill markers stroke"
   x="534.91486"
   y="202.03726"
   id="text1565"><tspan
     sodipodi:role="line"
     id="tspan1563"
     x="534.91486"
     y="202.03726">t--</tspan></text><text
   xml:space="preserve"
   style="font-style:normal;font-variant:normal;font-weight:normal;font-stretch:normal;font-size:67.089px;font-family:'MS PGothic';-inkscape-font-specification:'MS PGothic, Normal';font-variant-ligatures:normal;font-variant-caps:normal;font-variant-numeric:normal;font-variant-east-asian:normal;fill:none;fill-opacity:1;stroke:none;stroke-width:19.8274;stroke-linejoin:round;stroke-miterlimit:10.2;stroke-dasharray:none;stroke-opacity:1;paint-order:fill markers stroke"
   x="365.73285"
   y="-69.043907"
   id="text1569"><tspan
     sodipodi:role="line"
     id="tspan1567"
     x="365.73285"
     y="-69.043907" /></text><path
   style="fill:none;stroke-width:19.8274;stroke-linejoin:round;stroke-miterlimit:10.2;paint-order:fill markers stroke"
   d="m 135.14364,82.741003 c 0,0 126.86953,-74.4669027 248.22301,0"
   id="path367" /><path
   style="fill:none;stroke-width:19.8274;stroke-linejoin:round;stroke-miterlimit:10.2;paint-order:fill markers stroke"
   d="m 135.83315,82.741003 c 0,0 114.45839,-77.9144445 246.15448,-0.689508"
   id="path369" /><text
   xml:space="preserve"
   style="font-size:85.3333px;font-family:'MS PGothic';-inkscape-font-specification:'MS PGothic, Normal';fill:#b25400;fill-opacity:1;stroke:none;stroke-width:19.8274;stroke-linejoin:round;stroke-miterlimit:10.2;stroke-opacity:1;paint-order:fill markers stroke"
   x="173.7561"
   y="111.70036"
   id="text1847"><tspan
     sodipodi:role="line"
     id="tspan1845"
     x="173.7561"
     y="111.70036"
     style="font-size:85.3333px;fill:#b25400;fill-opacity:1">2023</tspan></text></g>

<g
   id="g546"
   transform="translate(-88.996813,-155.18122)"><g
     id="g275">
	<path
   fill="none"
   d="m 347.561,601.635 c -0.649,-0.396 -0.965,-1.338 -1.41,-2.015 0.039,-0.063 -0.035,0.012 -0.053,0.098 -0.189,0.896 -0.793,1.337 -1.485,1.516 1.124,0.619 2.247,0.964 3.362,0.972 0.511,0.003 1.031,-0.1 1.559,-0.281 -0.716,-0.015 -1.455,0.028 -1.973,-0.29 z"
   id="path49" />
	<path
   fill="none"
   d="m 338.664,590.911 c 0.848,0.097 1.324,0.667 1.648,1.377 0.233,0.51 0.391,1.053 0.618,1.683 0.169,-0.219 0.266,-0.327 0.342,-0.445 0.398,-0.613 0.962,-0.906 1.671,-0.735 0.695,0.166 1.027,0.742 1.077,1.391 0.036,0.507 -0.084,1.04 -0.219,1.538 -0.107,0.397 -0.146,0.752 0.313,0.833 1.261,0.226 1.833,1.016 1.981,2.215 0.008,0.062 0.082,0.116 0.223,0.301 0.198,-0.253 0.408,-0.441 0.519,-0.678 0.372,-0.803 1.094,-1.187 1.871,-0.81 0.737,0.359 1.432,0.827 2.08,1.33 0.542,0.422 0.537,1.392 0.081,1.989 -0.158,0.206 -0.348,0.396 -0.665,0.75 0.618,-0.296 1.245,-0.704 1.881,-1.217 -0.255,-0.491 -0.131,-1.113 0.407,-1.663 0.578,-0.591 1.349,-0.842 2.054,-0.772 0.797,-0.925 1.6,-1.975 2.404,-3.14 -0.499,-0.226 -0.912,-0.565 -1.077,-1.167 -0.302,-1.103 -0.155,-2.146 0.773,-2.941 0.626,-0.537 1.385,-0.519 2.063,-0.239 0.268,0.11 0.513,0.247 0.743,0.399 0.246,-0.42 0.492,-0.846 0.738,-1.28 0.006,-0.876 0.46,-1.551 1.132,-2.063 0.183,-0.341 0.364,-0.686 0.546,-1.033 -0.617,0.045 -1.282,-0.067 -1.976,-0.349 0.061,0.273 0.067,0.369 0.103,0.451 0.737,1.701 -0.743,2.401 -1.939,2.204 -1.017,-0.167 -2.012,-0.619 -2.946,-1.084 -0.987,-0.491 -1.04,-1.531 -0.22,-2.286 0.923,-0.85 1.741,-0.883 3.165,-0.127 0.146,0.078 0.287,0.171 0.558,0.247 -0.81,-1.445 -1.72,-2.888 0.472,-3.857 -0.017,-0.058 -0.026,-0.138 -0.044,-0.14 -1.074,-0.118 -1.926,-0.61 -2.605,-1.456 -0.157,-0.195 -0.474,-0.271 -0.726,-0.382 -1.001,-0.429 -1.341,-1.272 -0.917,-2.289 0.55,-1.316 1.41,-1.904 2.811,-1.761 0.888,0.092 1.766,0.322 2.632,0.551 1.664,0.438 1.893,2.62 0.937,3.768 -0.403,0.483 -0.945,0.852 -1.606,1.432 0.464,0 0.905,0.139 1.114,-0.023 0.984,-0.767 2.025,-1.048 3.383,-0.499 -0.788,-0.864 -1.636,-1.427 -1.623,-2.544 0.013,-1.03 0.523,-1.596 1.555,-1.621 0.275,-0.007 0.562,-0.005 0.823,0.066 0.487,0.134 0.81,0.035 1.159,-0.383 0.291,-0.348 0.622,-0.543 0.957,-0.6 0.161,-0.371 0.322,-0.742 0.482,-1.114 -0.094,-0.204 -0.148,-0.423 -0.143,-0.637 0.021,-0.765 0.666,-1.761 1.417,-2.379 0.811,-1.952 1.594,-3.899 2.342,-5.813 -0.089,-0.027 -0.177,-0.055 -0.264,-0.071 -0.643,-0.125 -0.869,-0.503 -0.781,-1.14 0.16,-1.157 0.716,-1.659 1.896,-1.687 0.096,-0.003 0.192,-0.025 0.288,-0.051 0.095,-0.249 0.188,-0.496 0.282,-0.743 -1.054,-0.06 -1.823,-0.683 -1.576,-2.191 -0.142,-0.915 0.063,-1.667 1.041,-2.111 1.033,-0.47 1.678,-0.469 2.216,-0.226 0.222,-0.609 0.438,-1.206 0.648,-1.792 -0.267,0.415 -0.726,0.737 -1.267,0.767 -0.664,0.036 -1.121,0.222 -1.618,0.695 -0.614,0.584 -1.402,1.016 -2.172,1.399 -1.499,0.745 -3.046,-0.204 -3.174,-1.885 0.212,-0.402 0.367,-0.849 0.65,-1.194 0.361,-0.44 0.77,-0.904 1.26,-1.164 0.539,-0.284 1.188,-0.431 1.802,-0.49 0.911,-0.09 1.844,0.031 2.749,-0.089 1.013,-0.132 1.858,0.209 1.998,0.99 0.018,0.097 0.021,0.194 0.014,0.293 0.215,-0.601 0.422,-1.186 0.623,-1.757 -0.476,-0.25 -0.879,-0.586 -1.215,-1.021 -0.661,-0.855 -0.422,-1.984 0.505,-2.538 0.736,-0.44 1.46,-0.914 2.301,-1.047 0.075,-0.219 0.146,-0.431 0.217,-0.641 -0.161,-0.085 -0.319,-0.181 -0.475,-0.296 -0.695,-0.517 -0.953,-1.062 -0.722,-1.795 0.35,-1.104 0.759,-1.442 1.727,-1.283 0.197,0 0.395,-0.003 0.592,-0.005 0.072,-0.219 0.139,-0.424 0.201,-0.617 -0.511,-0.15 -0.964,-0.414 -1.258,-0.826 -0.558,-0.781 -0.473,-1.73 0.287,-2.352 0.142,-0.116 0.3,-0.218 0.453,-0.324 -0.13,-0.18 -0.261,-0.371 -0.391,-0.548 -0.584,1.087 -1.688,1.657 -3.157,1.583 -1.831,-0.092 -2.937,-2.199 -1.926,-3.727 0.546,-0.822 1.273,-1.353 2.145,-1.619 -0.399,-0.48 -0.798,-0.939 -1.196,-1.394 -0.005,-0.002 -0.01,-0.004 -0.015,-0.006 -0.251,-0.105 -0.381,-0.285 -0.431,-0.508 -0.329,-0.368 -0.657,-0.714 -0.986,-1.063 -0.448,0.205 -0.909,0.402 -1.435,0.634 0.896,0.441 1.482,1.038 1.298,2.021 -0.117,0.626 -0.986,1.057 -1.827,1.014 -0.742,-0.04 -1.68,-0.641 -1.779,-1.177 -0.18,-0.997 0.407,-1.518 1.459,-1.91 -0.565,-0.151 -0.917,-0.244 -1.268,-0.343 -0.645,-0.179 -1.053,-0.574 -1.095,-1.264 -0.029,-0.498 -0.157,-1.059 0.02,-1.481 0.177,-0.419 0.536,-0.93 0.912,-1.113 -1.974,-1.737 -3.925,-3.173 -5.848,-4.336 -0.07,0.431 -0.574,0.909 -1,1.185 -0.418,0.273 -0.998,0.298 -1.506,0.432 -0.203,0.054 -0.406,0.109 -0.699,0.188 1.147,1.483 1.226,3.068 0.33,4.221 -1.006,1.294 -2.509,1.328 -3.989,1.432 0.01,0.064 0.018,0.131 0.027,0.196 0.357,0.255 0.732,0.487 1.065,0.769 0.908,0.769 0.899,1.514 -0.002,2.506 -0.784,0.865 -1.389,0.915 -2.228,0.075 -0.527,-0.526 -1.068,-1.097 -1.393,-1.751 -0.225,-0.453 -0.252,-1.145 -0.07,-1.616 0.197,-0.513 0.804,-0.585 1.378,-0.397 0.241,0.079 0.521,0.035 0.938,0.055 -1.131,-0.695 -1.871,-1.493 -1.819,-2.713 0.051,-1.236 0.733,-2.114 1.869,-2.595 0.494,-0.209 1.011,-0.352 1.301,0.375 0.173,0.435 0.509,0.409 0.844,0.112 0.367,-0.324 0.748,-0.632 1.183,-0.996 -0.595,-0.082 -1.188,-0.121 -1.757,-0.256 -0.703,-0.17 -1.561,-0.176 -1.789,-1.1 -0.15,-0.604 0.361,-1.3 1.294,-1.744 0.582,-0.277 1.165,-0.46 1.746,-0.555 -1.374,-0.568 -2.729,-1.01 -4.064,-1.33 0.182,0.122 0.366,0.241 0.546,0.365 0.483,0.331 0.576,0.846 0.29,1.33 -0.311,0.523 -0.772,0.884 -1.439,0.587 -0.362,-0.16 -0.696,-0.381 -1.054,-0.558 -0.176,-0.087 -0.372,-0.134 -0.559,-0.198 -0.037,0.063 -0.071,0.128 -0.107,0.193 0.232,0.183 0.465,0.364 0.697,0.547 0.296,0.231 0.603,0.448 0.886,0.691 0.54,0.462 0.956,1.004 0.665,1.76 -0.318,0.826 -1.349,1.495 -2.111,1.406 -0.215,-0.025 -0.47,-0.08 -0.622,-0.214 -1.063,-0.945 -2.129,-1.9 -2.641,-3.283 -0.245,-0.658 0.33,-1.52 1.044,-1.598 0.339,-0.038 0.681,-0.042 1.071,-0.064 -0.036,-0.167 -0.03,-0.197 -0.047,-0.214 -0.362,-0.415 -0.906,-0.781 -0.699,-1.383 -0.37,-0.026 -0.736,-0.04 -1.102,-0.05 -0.016,0.477 -0.288,0.938 -0.882,1.384 -0.109,-0.185 -0.237,-0.399 -0.365,-0.614 -0.172,-0.287 -0.372,-0.531 -0.59,-0.746 -0.336,0.017 -0.671,0.034 -1.002,0.063 0.424,0.213 0.8,0.51 1.11,0.949 0.554,0.784 0.47,1.813 -0.288,2.416 -0.926,0.737 -2.003,1.097 -3.199,1.077 -0.731,-0.011 -1.197,-0.388 -1.56,-0.989 -0.483,-0.799 -0.472,-1.997 0.007,-2.793 -0.324,0.08 -0.647,0.161 -0.967,0.251 -0.033,0.076 -0.054,0.147 -0.095,0.225 -0.095,0.177 -0.176,0.363 -0.289,0.528 -0.645,0.959 -1.209,1.047 -2.084,0.313 -0.064,-0.054 -0.122,-0.116 -0.185,-0.171 -0.217,0.083 -0.432,0.169 -0.645,0.257 0.379,0.866 -0.386,1.788 -1.545,1.719 -0.423,-0.079 -0.844,-0.212 -1.236,-0.416 -0.22,0.114 -0.439,0.229 -0.656,0.348 0.21,0.271 0.394,0.68 0.305,0.895 -0.143,0.342 -0.583,0.638 -0.961,0.775 -0.456,0.164 -0.979,0.142 -1.475,0.2 -0.025,0.046 -0.051,0.092 -0.075,0.138 -0.237,-0.082 -0.479,-0.154 -0.723,-0.227 -0.336,0.224 -0.668,0.451 -0.995,0.682 0.195,0.086 0.386,0.188 0.547,0.299 0.671,0.457 1.004,1.165 1.017,1.995 0.013,0.918 -0.433,1.519 -1.2,1.638 -0.46,0.07 -1.585,-0.707 -1.731,-1.233 -0.101,-0.358 -0.136,-0.733 -0.182,-0.997 0.028,-0.261 0.027,-0.447 0.067,-0.607 -0.225,0.173 -0.45,0.346 -0.67,0.521 -0.209,0.565 -0.509,1.102 -0.876,1.611 -0.269,0.369 -0.79,0.579 -1.229,0.797 -0.527,0.26 -0.6,0.488 -0.161,0.859 0.342,0.289 0.703,0.55 1.092,0.853 -0.012,0.019 0.061,-0.058 0.089,-0.146 0.493,-1.5 1.543,-1.71 2.771,-1.502 0.861,0.145 1.722,0.298 2.589,0.393 0.69,0.076 1.32,0.27 1.603,0.935 0.351,0.825 0.537,1.747 -0.055,2.505 -0.261,0.337 -0.855,0.498 -1.323,0.568 -0.817,0.121 -1.654,0.076 -2.477,0.159 -1.32,0.13 -2.288,-0.336 -2.865,-1.637 -0.729,0.636 -1.055,1.96 -2.438,1.255 -1.021,-0.52 -1.156,-1.42 -1.232,-2.618 -0.542,0.539 -1.061,1.073 -1.55,1.598 1.415,0.113 2.035,0.907 2.501,2.287 0.318,0.943 -0.18,1.699 -0.911,2.207 -1.795,1.249 -3.523,0.927 -4.559,-1.077 -10e-4,-0.002 -10e-4,-0.004 -0.002,-0.007 -0.137,0.168 -0.266,0.331 -0.394,0.491 0.045,0.121 0.099,0.24 0.142,0.363 0.345,0.971 -0.473,1.938 -1.597,1.987 -0.107,0.003 -0.208,-0.005 -0.31,-0.013 -0.345,0.482 -0.589,0.843 -0.728,1.052 0.073,0.201 0.122,0.414 0.126,0.643 0.002,0.116 -0.015,0.237 -0.047,0.359 0.234,0.828 0.652,2.282 1.231,4.207 0.184,0.025 0.355,0.066 0.483,0.164 0.377,0.287 0.633,0.915 0.677,1.419 0.035,0.396 -0.122,0.685 -0.417,0.855 0.168,0.544 0.346,1.112 0.531,1.7 0.982,1.068 1.37,2.341 1.216,3.788 0.169,0.516 0.343,1.044 0.521,1.579 0.049,-0.11 0.106,-0.22 0.181,-0.324 0.295,-0.413 0.547,-0.868 0.751,-1.333 0.384,-0.875 1.819,-0.986 2.538,-0.111 0.52,0.634 0.963,1.267 1.734,1.69 0.724,0.399 0.437,1.606 -0.461,1.977 -0.614,0.253 -1.3,0.333 -2.048,0.514 -0.683,-0.222 -1.452,-0.378 -2.127,-0.716 0.121,0.355 0.243,0.715 0.368,1.077 1.191,0.42 1.627,1.545 0.928,2.653 -10e-4,0.002 -0.003,0.004 -0.004,0.006 0.157,0.447 0.317,0.896 0.479,1.35 0.342,-0.051 0.694,-0.07 1.073,-0.015 0.586,0.087 1.198,0.249 1.288,0.844 0.073,0.482 -0.186,1.03 -0.362,1.524 -0.088,0.24 -0.326,0.427 -0.501,0.645 0.678,0.388 1.147,0.119 1.424,-0.617 0.195,-0.521 0.465,-1.061 0.841,-1.459 0.514,-0.545 1.313,-0.563 1.781,-0.191 0.545,0.431 0.663,1.214 0.277,1.909 -0.157,0.284 -0.348,0.551 -0.497,0.84 -0.089,0.171 -0.127,0.369 -0.187,0.554 0.082,0.049 0.166,0.096 0.248,0.143 0.392,-0.52 0.791,-1.033 1.173,-1.559 0.427,-0.588 0.802,-1.21 1.628,-1.33 1.212,-0.172 2.008,0.737 1.891,2.075 -0.158,1.849 -2.486,3.785 -3.985,4.017 -1.333,0.203 -2.002,-0.369 -2.014,-1.721 -0.002,-0.118 -0.039,-0.236 -0.07,-0.414 -0.912,0.357 -1.518,0.483 -1.937,0.354 0.242,0.632 0.487,1.265 0.736,1.898 0.358,-0.063 0.738,0 1.094,0.137 1.135,0.434 2.125,1.09 2.746,2.217 0.809,1.469 0.153,3.217 -1.324,3.773 0.206,0.479 0.414,0.956 0.623,1.431 0.908,-0.033 1.674,0.487 1.999,1.427 0.056,0.158 0.129,0.311 0.186,0.444 0.584,-0.587 1.036,-1.25 1.66,-1.612 0.897,-0.519 1.979,-0.548 2.878,-0.01 0.88,0.527 1.05,1.475 0.899,2.465 -0.118,0.791 -0.741,1.427 -1.534,1.523 -1.432,0.177 -2.633,-0.098 -3.282,-1.588 -0.209,-0.475 -0.497,-0.28 -0.71,0.067 -0.18,0.294 -0.371,0.499 -0.574,0.631 0.246,0.524 0.495,1.043 0.745,1.558 0.59,0.124 1.019,0.584 1.064,1.293 0.019,0.313 0.058,0.618 0.041,0.929 0.109,0.215 0.221,0.425 0.331,0.638 0,-0.087 0.002,-0.174 0.018,-0.267 0.094,-0.563 0.147,-1.137 0.177,-1.707 0.035,-0.719 0.35,-1.066 1.047,-1.088 0.868,-0.027 1.942,1.007 1.94,1.868 -0.004,0.901 -0.859,2.018 -1.728,2.252 -0.367,0.1 -0.689,0.057 -0.94,-0.084 0.139,0.259 0.277,0.518 0.417,0.772 0.733,0.02 1.378,0.325 1.917,1.202 0.062,-0.482 0.125,-0.748 0.124,-1.014 -0.004,-1.098 0.281,-1.379 1.393,-1.349 0.478,0.015 0.952,0.002 1.43,0.021 0.523,0.02 1.119,-0.03 1.35,0.584 0.238,0.631 0.249,1.282 -0.194,1.859 -0.796,1.033 -2.19,1.164 -3.443,0.328 -0.102,-0.067 -0.194,-0.146 -0.454,-0.343 -0.05,0.665 -0.083,1.155 -0.121,1.646 -0.012,0.143 -0.057,0.254 -0.083,0.383 0.135,0.22 0.27,0.436 0.405,0.651 0.533,-0.782 1.445,-1.313 2.349,-1.21 z m 4.086,1.028 c -1.325,-0.164 -2.107,-0.671 -1.976,-1.538 0.177,-1.149 0.512,-2.277 0.81,-3.406 0.214,-0.812 0.882,-0.975 1.595,-0.946 1.323,0.052 2.507,0.921 2.748,1.963 0.26,1.123 -0.409,2.57 -1.566,3.241 -0.501,0.289 -1.072,0.461 -1.611,0.686 z m 15.987,-43.794 c 0.013,0.047 0.04,0.09 0.097,0.211 0.436,-0.21 0.876,-0.409 1.305,-0.633 0.787,-0.415 2.013,-0.156 2.609,0.563 0.709,0.854 0.728,1.723 0.055,2.59 -0.731,0.943 -2.338,1.397 -3.466,0.982 -0.927,-0.34 -1.625,-1.778 -1.285,-2.787 -0.75,0.123 -1.434,0.346 -2.106,0.315 -0.645,-0.026 -1.304,-0.251 -1.907,-0.508 -0.595,-0.253 -0.59,-0.798 -0.394,-1.353 0.123,-0.35 0.25,-0.705 0.308,-1.068 0.245,-1.521 2.142,-2.266 3.414,-1.41 1.093,0.735 1.702,1.598 1.362,2.947 -0.014,0.048 -0.003,0.103 0.008,0.151 z m 0.483,-3.466 c 0.294,-0.432 0.909,-0.643 1.437,-0.992 0.648,0.322 1.228,0.506 1.666,0.862 0.364,0.298 0.638,0.757 0.364,1.335 -0.356,0.757 -0.863,1.305 -1.731,1.348 -1.214,0.062 -2.378,-1.607 -1.736,-2.553 z m -9.497,29.63 c -0.792,0.468 -1.595,0.304 -2.364,-0.095 -0.24,-0.125 -0.45,-0.306 -0.833,-0.569 0.056,0.442 0.101,0.733 0.125,1.027 0.087,1.032 -0.547,1.685 -1.573,1.626 -1.368,-0.079 -2.787,-1.234 -2.85,-2.324 -0.054,-0.921 0.555,-1.809 1.514,-2.208 0.672,-0.278 1.381,-0.022 2.031,0.735 0.127,0.147 0.256,0.293 0.522,0.6 0.173,-0.514 0.303,-0.9 0.417,-1.236 -0.113,-0.107 -0.131,-0.139 -0.15,-0.143 -1.184,-0.185 -1.241,-0.19 -1.11,-1.475 0.095,-0.937 0.31,-1.871 0.582,-2.773 0.239,-0.797 1.153,-1.06 1.759,-0.509 1.598,1.45 2.714,3.171 2.83,5.418 0.04,0.825 -0.177,1.5 -0.9,1.926 z m 1.317,3.172 c 0.277,0.161 0.612,0.269 0.82,0.494 0.226,0.24 0.499,0.622 0.451,0.888 -0.076,0.423 -0.398,0.798 -0.959,0.751 -0.169,-0.015 -0.345,0.036 -0.518,0.058 -0.021,0.041 -0.042,0.08 -0.064,0.119 -0.351,-0.181 -0.939,-0.304 -1,-0.557 -0.113,-0.456 -0.003,-1.03 0.186,-1.481 0.178,-0.424 0.63,-0.539 1.084,-0.272 z m -2.119,0.868 c 0.016,1.572 -1.716,2.899 -3.099,2.525 -0.501,-0.135 -0.807,-0.426 -0.894,-0.98 -0.246,-1.57 0.541,-2.951 2.043,-3.508 0.9,-0.334 1.572,0.049 1.765,1.007 0.074,0.368 0.142,0.736 0.185,0.956 z m -7.434,-8.04 c -0.499,-0.703 -1.147,-0.92 -1.897,-1.026 -1.947,-0.275 -2.744,-1.603 -2.05,-3.436 0.434,-1.147 2.674,-1.59 3.597,-0.595 0.739,0.801 1.544,1.345 2.566,1.708 0.923,0.327 1.498,1.747 1.262,2.732 -0.193,0.808 -0.976,1.4 -2.008,1.609 -0.504,-0.321 -1.151,-0.541 -1.47,-0.992 z m 8.448,-1.726 c -0.28,-0.309 -0.42,-0.973 -0.286,-1.357 0.12,-0.34 0.681,-0.581 1.095,-0.748 0.279,-0.112 0.643,-0.021 0.967,-0.021 0.006,-0.025 0.011,-0.052 0.016,-0.075 0.659,0.129 1.316,0.276 1.98,0.385 0.546,0.09 0.959,0.426 0.932,0.918 -0.048,0.875 -0.171,1.776 -0.464,2.598 -0.191,0.536 -1.441,0.576 -2.134,0.091 -0.753,-0.529 -1.494,-1.112 -2.106,-1.791 z m -9.859,-20.603 c 0.372,0.008 0.758,0.051 1.108,0.167 1.252,0.413 2.514,0.409 3.786,0.16 0.754,-0.148 1.288,0.203 1.403,0.944 0.383,2.432 -1.154,4.338 -3.613,4.521 -0.396,-0.054 -0.848,-0.009 -1.169,-0.192 -0.342,-0.193 -0.801,-0.619 -0.786,-0.919 0.042,-0.732 -0.357,-1.025 -0.861,-1.324 -0.811,-0.479 -1.178,-1.194 -1.143,-2.13 0.029,-0.825 0.435,-1.245 1.275,-1.227 z m -2.353,-4.637 c -1.036,0.042 -1.584,-0.461 -1.703,-1.568 -0.026,-0.249 -0.03,-0.5 -0.045,-0.75 -0.063,-0.024 -0.127,-0.048 -0.19,-0.072 0.279,-0.781 0.482,-1.602 0.86,-2.33 0.36,-0.696 1.268,-0.668 1.742,-0.039 0.689,0.916 1.002,1.943 0.918,3.093 -0.075,1.014 -0.645,1.627 -1.582,1.666 z m 6.198,-1.016 c 1.424,0.023 2.141,0.55 2.384,1.945 0.112,0.648 0.07,1.368 -0.092,2.007 -0.298,1.175 -1.219,1.517 -2.346,1.047 -0.397,-0.166 -0.856,-0.262 -1.283,-0.253 -1.052,0.022 -1.751,-0.361 -2.153,-1.294 -0.353,-0.813 -0.152,-1.966 0.44,-2.571 0.049,-0.051 0.077,-0.122 0.138,-0.229 -1.225,-0.898 -0.89,-2.387 -1.318,-3.596 -0.219,-0.62 0.288,-1.162 0.984,-1.213 0.56,-0.04 1.205,-0.116 1.68,0.104 1.697,0.789 1.859,2.468 0.437,3.701 -0.05,0.043 -0.063,0.127 -0.166,0.35 0.487,10e-4 0.892,-0.005 1.295,0.002 z m 0.084,14.43 c 0.188,-0.129 0.65,-0.106 0.827,0.04 0.737,0.609 1.437,1.206 2.458,1.335 0.244,0.031 0.589,0.564 0.604,0.88 0.067,1.403 -0.889,1.878 -2.407,2.082 -0.958,0.014 -2.077,-0.646 -2.327,-1.368 -0.362,-1.051 -0.019,-2.378 0.845,-2.969 z m 2.967,0.2 c -0.608,-0.363 -1.146,-0.87 -1.651,-1.376 -0.225,-0.223 -0.287,-0.606 -0.422,-0.918 0.038,-0.871 0.603,-1.216 1.275,-1.336 1.142,-0.201 2.288,-0.214 3.371,0.326 0.759,0.38 0.972,1.478 0.46,2.448 -0.833,1.588 -1.459,1.794 -3.033,0.856 z m 2.052,1.914 c 0.601,-1.154 1.633,-1.881 2.671,-2.572 0.215,-0.144 0.699,-0.063 0.963,0.087 0.972,0.557 1.711,2.644 1.283,3.677 -0.384,0.927 -1.179,1.244 -2.159,1.168 -0.96,-0.073 -1.935,-0.078 -2.625,-0.973 -0.364,-0.468 -0.384,-0.902 -0.133,-1.387 z m 4.874,7.316 c -1.364,0.083 -2.716,-0.688 -2.722,-1.788 -0.006,-1.224 1.031,-2.607 1.979,-2.75 1.203,-0.183 2.913,1.386 2.7,2.775 0.097,1.157 -0.317,1.663 -1.957,1.763 z m 0.919,-4.777 c -0.068,-0.483 -0.158,-1 -0.055,-1.46 0.146,-0.646 0.202,-1.189 -0.222,-1.772 -0.841,-1.152 -0.166,-2.887 1.048,-3.312 0.632,-0.222 1.155,-0.053 1.524,0.278 0.44,0.395 0.681,1.009 1.021,1.549 -0.256,0.565 -0.498,1.027 -0.673,1.514 -0.126,0.35 -0.214,0.728 -0.225,1.096 -0.017,0.658 0.104,1.325 0.04,1.975 -0.066,0.683 -0.622,0.955 -1.241,0.986 -0.591,0.029 -1.121,-0.165 -1.217,-0.854 z m 3.126,0.041 c 0.399,-0.375 0.504,-0.688 0.152,-1.064 -0.589,-0.629 -0.303,-1.178 0.152,-1.649 0.452,-0.468 1.042,-0.445 1.588,-0.132 1.406,0.803 2.065,2.047 2.099,3.642 0.01,1.118 -0.364,2.053 -1.4,2.533 -0.864,0.402 -1.74,0.318 -2.558,-0.273 -0.971,-0.704 -1.04,-2.113 -0.033,-3.057 z m 3.088,-3.409 c -1.132,-0.022 -1.833,-0.691 -2.257,-1.601 -0.397,-0.854 -0.6,-1.795 -0.868,-2.641 -1.004,0.218 -2.113,0.453 -3.217,0.71 -0.313,0.073 -0.621,0.192 -0.912,0.332 -1.631,0.78 -3.115,-0.509 -3.114,-1.968 0,-0.353 -0.043,-0.706 -0.058,-0.928 -0.747,0.269 -1.4,0.61 -2.091,0.722 -0.647,0.104 -1.431,-0.545 -1.616,-1.115 -0.213,-0.658 0.027,-1.563 0.561,-1.992 0.883,-0.719 1.908,-0.698 2.928,-0.452 0.477,0.115 0.822,0.467 0.719,1.069 -0.036,0.212 0.03,0.443 0.059,0.766 0.436,-0.286 0.749,-0.478 1.048,-0.688 0.663,-0.468 1.336,-0.474 2.06,-0.13 0.225,0.106 0.535,0.139 0.779,0.087 1.659,-0.358 2.924,0.523 3.109,2.192 0.023,0.208 0.103,0.409 0.172,0.667 0.29,-0.131 0.487,-0.233 0.691,-0.311 0.934,-0.347 1.403,-0.093 1.584,0.888 0.149,0.811 0.418,1.54 1.033,2.126 0.191,0.183 0.313,0.449 0.435,0.694 0.424,0.87 -0.077,1.592 -1.045,1.573 z m 1.049,-5.373 c 0.228,-0.628 1.124,-0.771 1.557,-0.2 0.62,0.821 1.339,1.39 2.313,1.77 0.792,0.313 0.702,1.342 -0.099,1.688 -0.477,0.205 -1.008,0.282 -1.363,0.377 -2.549,-0.212 -3.171,-1.524 -2.408,-3.635 z m -8.443,-7.752 c -0.491,1.67 -1.525,2.713 -3.107,3.277 -1.167,0.417 -2.214,0.158 -3.146,-0.638 -0.594,-0.508 -0.647,-1.149 -0.288,-1.759 0.3,-0.508 0.247,-0.906 -0.1,-1.298 -0.56,-0.63 -0.295,-1.157 0.208,-1.606 1.102,-0.982 2.376,-1.561 3.741,-1.516 2.292,-0.065 3.309,1.437 2.692,3.54 z m -5.99,-3.117 c -0.415,0.243 -0.898,0.375 -1.35,0.558 -1.077,-0.122 -1.989,-0.826 -2.251,-1.818 -0.019,-0.073 -0.047,-0.146 -0.05,-0.22 -0.046,-0.879 1.224,-2.833 2.045,-3.152 1.378,-0.536 2.891,0.33 3.159,1.808 0.194,1.066 -0.362,2.123 -1.553,2.824 z m -2.098,-5.3 c -1.111,1.01 -2.446,1.312 -3.909,1.154 -0.899,-0.098 -1.547,-0.516 -1.869,-1.398 -0.066,-0.184 -0.246,-0.388 -0.419,-0.441 -0.104,-0.032 -0.297,0.199 -0.444,0.317 -0.531,0.43 -1.015,0.945 -1.604,1.271 -0.759,0.422 -1.891,-0.248 -2.071,-1.165 -0.211,-1.07 -0.244,-2.131 0.291,-3.144 0.204,-0.387 0.436,-0.58 0.892,-0.483 0.204,0.043 0.44,0.021 0.647,-0.03 0.999,-0.259 1.443,-0.077 1.86,0.876 0.237,0.541 0.395,1.119 0.648,1.85 0.691,-2.362 3.744,-3.178 5.446,-2.777 0.812,0.191 1.454,0.709 1.595,1.615 0.155,1 -0.376,1.73 -1.063,2.355 z m -7.985,7.541 c 1.395,0.129 1.76,0.624 1.364,1.929 -0.045,0.145 -0.07,0.295 -0.124,0.435 -0.64,1.656 -1.42,1.941 -2.951,1.061 -0.477,-0.273 -0.963,-0.557 -1.369,-0.919 -0.66,-0.588 -0.518,-1.34 0.309,-1.64 0.907,-0.333 1.846,-0.583 2.771,-0.866 z m -2.548,3.933 c 0.862,0.891 0.097,1.786 -0.156,2.65 -0.137,0.471 -0.482,0.876 -0.687,1.331 -0.662,1.484 -2.873,1.611 -3.808,0.53 -0.294,-0.342 -0.38,-0.864 -0.577,-1.344 0.588,-1.503 1.102,-2.947 2.258,-4.032 0.422,-0.396 0.956,-0.524 1.507,-0.128 0.48,0.346 1.062,0.579 1.463,0.993 z m -0.42,4.96 c 0.306,-1.021 0.91,-1.862 1.844,-2.358 0.354,-0.188 0.953,-0.184 1.326,-0.015 1.085,0.487 1.596,1.495 1.849,2.59 0.145,0.62 -0.233,1.146 -0.824,1.363 -0.786,0.292 -1.607,0.484 -2.416,0.719 -1.46,-0.037 -2.188,-0.934 -1.779,-2.299 z m 3.58,3.041 c 0.976,-1.288 2.466,-1.641 3.917,-0.694 0.59,0.384 0.962,1.029 0.719,1.683 -0.196,0.524 -0.738,0.924 -1.144,1.364 -0.091,0.099 -0.246,0.137 -0.515,0.28 1.71,0.757 1.725,1.995 1.017,3.578 0.399,-0.259 0.596,-0.444 0.827,-0.521 0.479,-0.158 1.076,-0.486 1.445,-0.327 0.689,0.294 1.174,0.927 1.008,1.813 -0.031,0.17 -0.03,0.345 -0.043,0.518 0.005,-0.004 0.01,-0.008 0.016,-0.012 0.199,-0.249 0.505,-0.475 0.557,-0.751 0.346,-1.8 2.607,-2.34 3.766,-1.647 0.728,0.437 0.773,1.327 0.707,2.095 -0.167,1.902 -1.292,2.959 -3.213,3.131 -1,0.09 -1.979,-0.937 -1.859,-1.937 0.037,-0.296 0.033,-0.596 0.049,-0.896 -0.001,10e-4 -0.022,0.023 -0.022,0.023 0,-0.003 10e-4,-0.005 10e-4,-0.007 -0.631,0.451 -1.244,0.925 -1.892,1.351 -0.539,0.354 -1.182,0.263 -1.476,-0.229 -0.225,-0.376 -0.103,-0.979 -0.083,-1.478 0.013,-0.277 0.134,-0.552 0.229,-0.916 -0.696,0.292 -1.196,0.564 -1.731,0.713 -1.917,0.532 -3.194,-0.998 -3.383,-2.584 -0.196,-1.636 0.094,-3.22 1.103,-4.55 z m -0.261,8.032 c -0.019,1.098 -1.47,2.517 -2.568,2.381 -0.373,-0.047 -0.846,-0.433 -1.013,-0.786 -0.449,-0.948 -0.61,-1.969 -0.075,-2.967 0.296,-0.55 0.807,-0.741 1.396,-0.708 1.239,0.075 2.278,1.043 2.26,2.08 z m -2.685,2.764 c 0.745,0.003 1.407,0.665 1.438,1.457 0.032,0.819 -0.634,1.405 -1.603,1.41 -0.964,0.007 -1.419,-0.477 -1.503,-1.385 -0.073,-0.791 0.952,-1.484 1.668,-1.482 z m 1.371,2.93 c 0.552,-0.479 1.145,-0.627 1.855,-0.22 0.666,0.383 1.413,0.62 2.101,0.966 1.602,0.805 1.123,2.51 0.255,3.328 -0.383,0.361 -0.952,0.528 -1.438,0.783 -1.865,-0.145 -3.184,-1.381 -3.638,-2.895 -0.238,-0.8 0.277,-1.45 0.865,-1.962 z m 2.16,7.432 c 0.469,-0.706 0.997,-1.38 1.545,-2.028 0.456,-0.539 0.989,-0.565 1.509,-0.098 0.705,0.638 1.463,1.244 2.052,1.98 0.832,1.039 1.226,1.995 -0.135,3.436 -0.719,0.76 -1.879,1.163 -2.727,0.808 -1.295,-0.545 -2.539,-1.161 -2.662,-3.047 0.09,-0.237 0.179,-0.693 0.418,-1.051 z m 5.16,4.793 c 1.193,-0.229 2.385,-0.466 3.577,-0.695 0.763,-0.148 1.516,0.354 1.698,1.125 0.287,1.22 -0.401,2.479 -1.604,2.832 -0.688,0.202 -1.404,0.311 -1.998,0.437 -1.141,-0.196 -2.133,-0.321 -2.688,-1.418 -0.432,-0.858 0.062,-2.098 1.015,-2.281 z m 5.452,3.24 c 0.733,0.271 1.496,0.485 2.192,0.83 0.612,0.304 0.622,0.842 0.251,1.394 -0.802,1.191 -2.781,2.032 -4.159,1.683 -0.289,-0.074 -0.694,-0.447 -0.71,-0.702 -0.038,-0.661 0.028,-1.356 0.204,-1.993 0.226,-0.814 0.923,-1.1 2.222,-1.212 z m -1.154,10.257 c -0.563,0.694 -1.685,0.924 -2.547,0.584 -0.663,-0.262 -1.138,-1.097 -1.115,-1.967 -0.021,-0.882 0.302,-1.606 0.958,-2.197 0.183,-0.163 0.365,-0.357 0.466,-0.575 0.51,-1.108 1.401,-1.479 2.56,-1.428 0.887,0.039 1.473,0.397 1.875,1.232 0.398,0.831 0.172,1.597 -0.375,2.035 -0.814,0.654 -1.208,1.556 -1.822,2.316 z m 7.64,-0.011 c 0.021,0.813 -0.343,1.313 -1.307,1.596 -0.95,0.279 -1.927,0.473 -2.893,0.703 -0.933,-0.153 -1.816,-0.243 -2.435,-0.983 -0.589,-0.707 -0.512,-1.425 0.24,-1.936 1.522,-1.034 3.217,-1.368 5.018,-0.967 0.806,0.179 1.358,0.883 1.377,1.587 z m -0.811,-6.76 c 0.845,0.561 1.012,1.568 0.449,2.44 -0.789,1.221 -1.923,1.952 -3.379,2.047 -0.863,0.056 -1.184,-0.448 -1.056,-1.303 0.08,-0.538 0.063,-1.094 0.079,-1.642 0.035,-1.308 0.87,-2.128 2.247,-2.291 0.56,0.246 1.162,0.418 1.66,0.749 z m 1.674,-5.451 c -0.604,1.156 -1.619,1.709 -2.831,1.982 -0.24,0.055 -0.498,0.03 -0.749,0.045 -0.009,0.033 -0.018,0.065 -0.028,0.099 -0.597,-0.157 -1.221,-0.249 -1.787,-0.483 -1.678,-0.695 -2.118,-2.253 -0.976,-3.637 0.759,-0.918 1.748,-1.52 2.995,-1.699 1.966,-0.282 4.059,2.384 3.376,3.693 z m -2.059,-6.981 c -0.168,0.216 -0.39,0.39 -0.595,0.572 -1.205,1.073 -2.677,0.76 -3.345,-0.727 -0.089,-0.197 -0.082,-0.438 -0.146,-0.816 0.44,-1.135 0.783,-2.459 1.823,-3.407 0.564,-0.516 1.257,-0.387 1.817,0.006 1.845,1.288 1.848,2.583 0.446,4.372 z m 1.213,-6.776 c -0.238,-0.386 -0.427,-0.959 -0.325,-1.368 0.564,-2.271 3.506,-3.418 5.494,-2.203 0.625,0.383 0.881,1.128 0.624,1.821 -0.508,1.382 -2.192,2.518 -3.752,2.497 -0.721,-0.046 -1.573,0.009 -2.041,-0.747 z m 4.844,5.283 c -0.453,0.251 -0.965,0.445 -1.471,0.537 -1.697,0.302 -2.918,-0.772 -2.905,-2.506 0.009,-1.462 0.772,-2.221 2.242,-2.193 0.475,0.01 0.956,0.052 1.421,0.141 0.987,0.188 1.698,0.878 1.853,1.741 0.141,0.788 -0.343,1.837 -1.14,2.28 z m 1.149,-4.954 c 0.015,-1.091 0.999,-2.152 2,-2.159 0.826,-0.004 1.488,0.705 1.49,1.599 0.002,1.23 -0.811,2.209 -1.847,2.223 -0.933,0.011 -1.655,-0.718 -1.643,-1.663 z m 3.416,6.174 c -1.001,0.472 -1.831,0.066 -2.561,-0.512 -0.273,-0.219 -0.426,-0.801 -0.373,-1.18 0.152,-1.089 1.457,-2.222 2.552,-2.355 1.059,-0.13 1.874,0.621 1.883,1.737 -0.056,1.059 -0.504,1.839 -1.501,2.31 z m 3.072,-5.27 c -0.061,0.179 -0.223,0.334 -0.362,0.475 -0.47,0.474 -1.041,0.599 -1.655,0.379 -0.644,-0.23 -0.643,-0.814 -0.548,-1.33 0.149,-0.806 -0.075,-1.486 -0.344,-2.238 -0.357,-0.998 -0.298,-1.928 0.767,-2.533 1.106,-0.627 2.521,-0.613 3.117,0.166 0.191,0.251 0.192,0.648 0.334,1.182 -0.405,1.214 -0.844,2.56 -1.309,3.899 z m -0.573,-10.545 c 0.422,-0.463 0.962,-0.707 1.625,-0.453 0.896,0.344 1.159,0.729 1.115,1.856 0.045,1.17 -0.55,2.11 -1.719,2.687 -0.664,0.326 -1.359,0.363 -2.019,-0.02 -1.12,-0.649 -1.215,-1.314 -0.391,-2.311 0.479,-0.574 0.888,-1.209 1.389,-1.759 z m -1.427,0.744 c -0.496,0.506 -1.105,0.921 -1.72,1.282 -0.455,0.266 -0.569,0.419 -0.124,0.794 0.899,0.754 0.937,2.639 0.065,3.432 -0.568,0.518 -1.202,0.404 -1.811,0.055 -0.581,-0.335 -0.862,-0.813 -0.656,-1.507 0.278,-0.94 0.678,-1.778 1.921,-2.116 -1.21,-0.666 -1.383,-1.738 -1.767,-2.741 -0.509,-1.331 0.574,-2.92 2.043,-3.019 1.093,-0.072 1.758,0.7 2.238,1.518 0.436,0.739 0.465,1.633 -0.189,2.302 z m 2.323,-7.668 c -0.812,1.07 -2.022,1.146 -2.961,0.183 -0.447,-0.46 -0.896,-0.919 -1.339,-1.385 -0.848,-0.896 -0.789,-2.482 0.121,-3.313 0.181,-0.163 0.371,-0.315 0.589,-0.499 -0.122,-0.117 -0.152,-0.17 -0.194,-0.181 -1.794,-0.512 -1.794,-0.511 -1.531,-2.331 0.007,-0.05 0.013,-0.099 0.018,-0.149 0.19,-1.676 0.271,-1.764 1.937,-2.055 0.802,-0.142 1.313,0.257 1.318,1.078 0.003,0.574 0.055,1.192 -0.13,1.714 -0.202,0.566 -0.653,1.048 -1.043,1.638 0.25,-0.012 0.613,0.008 0.962,-0.058 0.977,-0.181 1.637,0.08 2.175,0.913 0.935,1.445 0.968,3.274 0.078,4.445 z m 4.282,-2.12 c -0.217,1.005 -0.579,1.827 -1.546,2.217 -0.309,0.122 -0.808,0.094 -1.069,-0.085 -0.267,-0.183 -0.53,-0.665 -0.482,-0.967 0.161,-1.028 0.302,-2 -0.261,-2.98 -0.322,-0.562 0.43,-1.472 1.193,-1.244 1.362,-0.054 2.594,1.084 2.165,3.059 z m 0.174,-7.452 c 0.07,-1.188 0.336,-1.39 1.729,-1.316 1.505,0.076 1.813,0.323 1.756,1.401 -0.079,1.493 -0.667,2.059 -2.068,1.987 -1.198,-0.058 -1.507,-0.513 -1.417,-2.072 z m -0.346,3.492 c 0.222,-0.739 0.921,-1.122 1.782,-0.979 0.729,0.122 1.122,0.652 1.13,1.665 -0.029,0.178 -0.031,0.518 -0.148,0.811 -0.207,0.52 -0.565,0.825 -1.171,0.542 -0.226,-0.104 -0.464,-0.186 -0.687,-0.297 -0.819,-0.4 -1.128,-1.002 -0.906,-1.742 z m -0.488,-3.75 c 0.113,0.382 0.178,0.777 0.247,1.172 0.034,0.196 0.028,0.399 0.04,0.6 0.093,0.983 -0.396,1.627 -1.238,2.024 -1.545,0.731 -2.41,0.881 -3.407,-0.192 -0.693,-0.746 -1.206,-2.295 -0.281,-3.193 0.233,-0.227 0.561,-0.389 0.872,-0.494 0.732,-0.248 1.491,-0.418 2.222,-0.669 0.793,-0.274 1.305,-0.058 1.545,0.752 z m -3.5,-5.796 c 1.962,-0.179 2.643,0.362 2.828,2.196 0.125,1.239 -0.865,2.276 -2.395,2.475 -0.446,0.057 -0.901,0.046 -1.353,0.065 -2.132,-0.004 -3.227,-1.004 -3.458,-3.173 -0.067,-0.629 0.276,-1.101 0.892,-1.176 1.161,-0.14 2.322,-0.281 3.486,-0.387 z m -1.046,-2.755 c 0.405,1.432 0.074,2.004 -1.419,2.158 -0.8,0.082 -1.598,0.165 -2.229,0.23 -1.053,0.02 -1.475,-0.325 -1.627,-1.186 -0.29,-1.636 0.354,-2.804 1.715,-3.17 1.366,-0.365 3.098,0.334 3.56,1.968 z m -6.098,-6.849 c 0.737,-1.131 1.197,-1.313 2.747,-0.607 0.66,0.3 1.313,0.616 1.958,0.949 0.869,0.448 1.1,1.404 0.559,2.232 -0.852,1.302 -3.676,2.063 -5.03,1.293 -0.622,-0.354 -0.912,-0.979 -0.966,-1.771 0.235,-0.705 0.339,-1.494 0.732,-2.096 z m -4.052,10.166 c 0.276,-0.002 0.551,-0.084 0.956,-0.149 -0.211,-0.25 -0.306,-0.389 -0.425,-0.499 -0.535,-0.497 -0.458,-1.054 -0.188,-1.646 0.13,-0.286 0.308,-0.587 0.32,-0.888 0.06,-1.388 0.891,-2.152 2.273,-2.031 0.968,0.083 1.739,1.228 1.488,2.39 -0.161,0.742 -0.419,1.513 -0.839,2.133 -0.257,0.38 -0.884,0.545 -1.378,0.717 -0.281,0.099 -0.623,0.019 -0.81,0.019 0.59,0.992 1.181,1.986 1.829,3.078 0.079,-0.292 0.206,-0.572 0.223,-0.858 0.024,-0.448 -0.008,-0.903 -0.049,-1.353 -0.055,-0.586 0.066,-1.05 0.704,-1.229 0.541,-0.152 1.432,0.156 1.648,0.625 0.447,0.974 0.86,1.963 1.282,2.949 0.038,0.09 0.048,0.195 0.058,0.293 0.081,0.859 -0.624,1.541 -1.976,1.909 -0.681,0.188 -1.442,-0.15 -1.785,-0.757 -0.124,-0.22 -0.312,-0.401 -0.52,-0.663 -0.135,0.212 -0.205,0.309 -0.262,0.413 -1.014,1.878 -3.51,2.38 -5.208,1.049 -0.541,-0.424 -0.691,-0.908 -0.451,-1.587 0.158,-0.451 0.109,-0.974 0.181,-1.461 0.207,-1.409 1.774,-2.446 2.929,-2.454 z m -3.721,-1.76 c 0.203,0.281 0.365,0.595 0.558,0.885 1.188,1.799 -0.388,3.327 -2.047,3.235 -1.12,0.003 -2.035,-0.806 -2.162,-2.076 -0.083,-0.84 -0.305,-1.447 -1.118,-1.859 -0.614,-0.309 -0.453,-1.433 0.182,-1.733 1.349,-0.637 3.293,-0.229 4.587,1.548 z m -0.43,-6.121 c 0.05,0.082 0.08,0.184 0.098,0.279 0.167,1 -0.873,2.903 -1.835,3.217 -0.348,0.115 -0.84,0.116 -1.15,-0.05 -0.702,-0.37 -1.24,-0.146 -1.684,0.341 -0.465,0.512 -0.914,0.433 -1.288,0.024 -0.43,-0.469 -0.912,-0.991 -1.088,-1.574 -0.536,-1.787 0.241,-2.631 1.979,-3.265 0.719,-0.263 1.509,-0.328 2.048,-0.438 1.398,-0.011 2.294,0.481 2.92,1.466 z m -7.344,-4.068 c 0.441,-0.226 0.875,-0.485 1.342,-0.647 0.874,-0.303 2.567,0.888 2.549,1.791 -0.004,0.218 -0.153,0.537 -0.33,0.628 -0.834,0.432 -1.7,0.797 -2.369,1.104 -0.762,0.02 -1.527,-0.794 -1.804,-1.614 -0.219,-0.647 0.093,-0.999 0.612,-1.262 z m -8.248,-0.678 c 0.421,-0.201 0.832,-0.433 1.218,-0.697 0.815,-0.563 1.701,-0.484 2.261,0.236 0.531,0.685 0.383,1.885 -0.237,2.453 -1.049,0.963 -2.082,0.483 -3.133,0.043 -0.218,-0.092 -0.449,-0.158 -0.675,-0.234 0,0.005 0,0.01 10e-4,0.015 0,0 -0.021,-0.021 -0.021,-0.021 0.007,0.002 0.014,0.005 0.02,0.007 -0.008,-0.096 -0.002,-0.195 -0.035,-0.28 -0.33,-0.828 -0.196,-1.141 0.601,-1.522 z m -3.937,5.566 c -1.448,-1.106 -0.813,-3.075 0.621,-3.819 0.991,-0.515 1.834,-0.15 2.738,0.065 -0.003,-0.006 -0.007,-0.013 -0.01,-0.019 l 0.021,0.021 c -0.004,-10e-4 -0.007,-0.002 -0.011,-0.003 0.482,0.929 0.962,1.855 1.452,2.799 0.158,-0.1 0.44,-0.361 0.771,-0.465 0.321,-0.099 0.723,0.046 1.033,-0.068 0.247,-0.092 0.485,-0.382 0.59,-0.641 0.165,-0.404 0.108,-0.923 0.331,-1.276 0.716,-1.143 1.787,-1.261 2.864,-0.371 0.89,0.737 1.279,1.724 1.281,2.854 0.003,0.991 -0.687,1.736 -1.631,1.498 -1.225,-0.308 -1.942,0.335 -2.746,0.972 -0.173,0.138 -0.362,0.275 -0.569,0.345 -1.047,0.348 -1.733,-0.042 -2.09,-1.161 -0.085,-0.27 -0.159,-0.543 -0.201,-0.686 -0.633,0.338 -1.168,0.817 -1.757,0.895 -0.99,0.131 -1.869,-0.315 -2.687,-0.94 z m -6.183,5.41 c 0.411,-0.079 1.011,0.217 1.355,0.53 0.383,0.349 0.591,0.9 0.84,1.382 0.241,0.464 0.437,0.952 0.646,1.42 0.232,-0.662 0.392,-1.325 0.69,-1.917 0.567,-1.115 1.623,-1.333 3.061,-0.714 1.002,0.432 1.381,1.386 1.135,2.493 -0.155,0.688 -0.132,1.419 -0.159,2.132 -0.013,0.323 0.073,0.651 0.058,0.975 -0.064,1.465 -0.892,2.15 -2.312,1.871 -0.661,-0.13 -0.871,-0.031 -0.715,0.698 0.07,0.334 -0.108,0.795 -0.318,1.099 -0.278,0.403 -0.684,0.729 -1.062,1.055 -0.744,0.643 -1.137,0.664 -1.679,0.141 -0.852,-0.825 -0.897,-1.205 -0.239,-2.047 0.402,-0.514 0.77,-1.063 1.237,-1.509 0.277,-0.265 0.721,-0.358 1.175,-0.567 -0.025,-0.138 -0.046,-0.354 -0.106,-0.558 -0.199,-0.669 -0.423,-1.328 -0.618,-1.998 -0.143,-0.487 -0.329,-0.717 -0.914,-0.496 -0.968,0.366 -2.755,-0.469 -3.198,-1.416 -0.445,-0.95 0.108,-2.374 1.123,-2.574 z m 1.5,14.489 c -0.459,0.716 -1.846,0.346 -2.117,-0.545 -0.237,-0.783 -0.348,-1.604 -0.537,-2.517 0.104,-0.218 0.173,-0.646 0.382,-0.729 0.272,-0.11 0.701,-0.034 0.979,0.117 0.786,0.428 1.515,1.016 1.649,1.932 0.081,0.561 -0.054,1.27 -0.356,1.742 z m -5.2,-10.579 c 0.589,-0.669 1.296,-0.799 2.235,-0.513 1.24,0.377 2.078,1.275 2.858,2.208 0.481,0.576 0.426,1.304 0.095,1.993 -0.373,0.771 -0.928,1.237 -1.845,1.186 -1.584,-0.252 -2.972,-0.841 -3.76,-2.371 -0.421,-0.82 -0.255,-1.741 0.417,-2.503 z m -5.938,3.66 c -0.444,-0.426 -0.548,-0.964 -0.301,-1.444 0.57,-1.111 1.481,-1.898 2.72,-2.177 0.913,-0.206 1.522,-0.062 1.862,1.299 0.086,0.338 0.099,0.693 0.118,0.852 -0.008,1.27 -0.534,1.972 -1.594,2.151 -1.011,0.173 -1.994,0.089 -2.805,-0.681 z m 4.935,9.608 c -0.436,0.042 -0.998,-0.174 -1.343,-0.461 -0.664,-0.558 -1.291,-1.196 -1.784,-1.905 -0.29,-0.418 -0.485,-1.092 -0.352,-1.539 0.078,-0.261 0.884,-0.387 1.373,-0.422 0.588,-0.042 1.188,0.098 1.784,0.115 0.165,0.006 0.335,-0.143 0.503,-0.22 -0.004,-0.078 -0.006,-0.158 -0.009,-0.239 -0.39,-0.031 -0.781,-0.097 -1.17,-0.086 -1.214,0.031 -2.134,-0.469 -2.741,-1.506 -0.324,-0.558 -0.384,-1.155 0.107,-1.666 0.799,-0.831 1.168,-0.928 1.95,-0.437 0.509,0.32 0.812,0.346 1.141,-0.245 0.108,-0.197 0.695,-0.354 0.891,-0.238 0.695,0.411 1.363,0.897 1.95,1.452 0.443,0.42 0.37,0.988 -0.087,1.397 -0.449,0.399 -0.958,0.729 -1.579,1.193 0.316,-0.026 0.563,0.018 0.736,-0.075 0.677,-0.355 1.237,-0.148 1.68,0.359 0.587,0.677 0.84,1.555 0.348,2.299 -0.786,1.194 -1.906,2.085 -3.398,2.224 z m 4.155,6.82 c -0.074,0.335 -0.149,0.6 -0.189,0.866 -0.124,0.816 -0.799,1.401 -1.612,1.381 -0.854,-0.02 -1.462,-0.653 -1.552,-1.621 -0.078,-0.846 0.377,-1.627 1.176,-1.634 0.644,-0.006 1.289,0.352 2.022,0.576 0.201,-1.067 -0.209,-2.519 1.29,-3.402 -0.661,-0.27 -1.146,-0.452 -1.62,-0.661 -1.098,-0.488 -1.49,-1.759 -0.715,-2.669 0.503,-0.59 1.171,-1.079 1.851,-1.467 0.821,-0.469 1.573,0.175 2.038,1.22 0.09,0.2 0.076,0.444 0.126,0.663 0.128,0.561 0.41,0.653 0.827,0.278 1.031,-0.924 2.729,-0.563 3.389,0.635 0.187,0.339 0.697,0.616 1.104,0.693 0.947,0.18 1.363,0.449 1.6,1.323 0.2,0.736 -0.114,1.177 -0.882,1.206 -0.725,0.03 -1.451,0.052 -2.177,0.05 -1.714,-0.007 -2.878,-0.921 -3.457,-2.691 -0.05,-0.153 -0.104,-0.307 -0.165,-0.485 -0.333,0.543 -0.634,1.035 -1.017,1.663 0.172,0.108 0.41,0.292 0.677,0.413 0.271,0.123 0.59,0.148 0.854,0.281 1.175,0.592 1.25,1.146 0.353,2.101 -0.25,0.268 -0.414,0.615 -0.622,0.924 -1.012,1.512 -1.922,1.64 -3.299,0.357 z m 5.939,2.881 c -0.182,0.56 -1.134,1.074 -1.829,1.165 -0.65,-0.295 -1.346,-0.519 -1.937,-0.903 -0.558,-0.365 -0.541,-0.92 -0.063,-1.399 0.333,-0.334 0.757,-0.587 1.059,-0.946 0.38,-0.451 0.745,-0.939 0.986,-1.471 0.268,-0.583 0.599,-0.938 1.265,-0.982 0.769,-0.051 1.533,-0.157 2.3,-0.241 0.589,-0.064 1.462,0.38 1.409,0.855 -0.051,0.439 -0.377,1.012 -0.751,1.222 -1.143,0.634 -2.028,1.423 -2.439,2.7 z m -1.377,15.282 c -1.298,0.11 -1.575,-0.953 -1.29,-1.856 0.05,-0.164 0.145,-0.319 0.239,-0.465 0.645,-0.991 0.744,-1.954 0.053,-3.006 -0.623,-0.949 -0.495,-1.562 0.414,-2.268 0.994,-0.774 2.123,-1.053 3.049,-0.48 1.01,0.621 1.278,2.024 0.453,2.883 -0.188,0.197 -0.429,0.351 -0.605,0.558 -0.513,0.604 -0.925,1.188 -0.53,2.091 0.517,1.183 -0.476,2.527 -1.783,2.543 z m 3.889,-0.675 c -0.21,-0.138 -0.412,-0.282 -0.623,-0.415 -0.795,-0.499 -1.136,-1.153 -0.964,-1.856 0.265,-1.084 0.979,-1.761 1.92,-1.823 0.749,-0.05 1.5,0.599 1.816,1.618 0.117,0.379 0.149,0.786 0.241,1.281 -0.095,0.325 -0.13,0.78 -0.344,1.12 -0.418,0.667 -1.145,0.662 -2.046,0.075 z m 1.752,7.851 c -1.264,-0.686 -1.122,-1.73 -0.191,-3.154 0.591,-0.907 1.54,-0.795 2.439,-0.802 0.102,0 0.201,0 0.302,-0.002 2.217,-0.012 2.78,1.086 1.959,3.41 -0.184,0.524 -0.341,1.31 -1.01,1.258 -1.189,-0.092 -2.495,-0.164 -3.499,-0.71 z"
   id="path51" />
	<path
   fill="none"
   d="m 342.086,596.974 c -0.146,-0.455 -0.581,-0.809 -0.826,-1.241 -0.244,-0.429 -0.415,-0.9 -0.685,-1.503 -0.419,0.844 -0.965,1.361 -1.774,1.506 0.051,0.066 0.102,0.129 0.152,0.195 0.837,0.138 1.926,0.582 2.231,0.988 0.46,0.615 0.571,1.342 0.383,1.984 0.239,0.232 0.479,0.455 0.718,0.665 0.052,-0.209 0.094,-0.418 0.083,-0.624 -0.031,-0.662 -0.081,-1.345 -0.282,-1.97 z"
   id="path53" />
	<path
   d="m 346.098,599.718 c 0.018,-0.086 0.092,-0.16 0.053,-0.098 0.445,0.677 0.761,1.619 1.41,2.015 0.519,0.317 1.257,0.274 1.973,0.289 0.223,-0.077 0.446,-0.168 0.671,-0.275 0.317,-0.354 0.507,-0.544 0.665,-0.75 0.456,-0.598 0.461,-1.567 -0.081,-1.989 -0.648,-0.503 -1.343,-0.971 -2.08,-1.33 -0.777,-0.377 -1.499,0.007 -1.871,0.81 -0.11,0.236 -0.32,0.425 -0.519,0.678 -0.141,-0.185 -0.215,-0.239 -0.223,-0.301 -0.148,-1.199 -0.721,-1.989 -1.981,-2.215 -0.459,-0.081 -0.42,-0.436 -0.313,-0.833 0.135,-0.498 0.255,-1.031 0.219,-1.538 -0.05,-0.648 -0.382,-1.225 -1.077,-1.391 -0.709,-0.171 -1.272,0.122 -1.671,0.735 -0.076,0.118 -0.173,0.227 -0.342,0.445 -0.228,-0.63 -0.385,-1.173 -0.618,-1.683 -0.324,-0.71 -0.801,-1.28 -1.648,-1.377 -0.904,-0.103 -1.816,0.429 -2.348,1.211 0.818,1.302 1.647,2.517 2.484,3.614 0.81,-0.145 1.355,-0.662 1.774,-1.506 0.27,0.603 0.44,1.074 0.685,1.503 0.245,0.433 0.681,0.786 0.826,1.241 0.201,0.625 0.251,1.308 0.282,1.971 0.011,0.206 -0.031,0.415 -0.083,0.624 0.774,0.681 1.551,1.237 2.327,1.665 0.693,-0.178 1.296,-0.619 1.486,-1.515 z"
   id="path55" />
	<path
   d="m 365.976,576.451 c -0.35,0.418 -0.672,0.517 -1.159,0.383 -0.262,-0.071 -0.548,-0.073 -0.823,-0.066 -1.031,0.025 -1.542,0.591 -1.555,1.621 -0.013,1.117 0.835,1.68 1.623,2.544 -1.357,-0.549 -2.398,-0.268 -3.383,0.499 -0.209,0.162 -0.65,0.023 -1.114,0.023 0.661,-0.58 1.203,-0.948 1.606,-1.432 0.956,-1.147 0.728,-3.329 -0.937,-3.768 -0.866,-0.229 -1.744,-0.459 -2.632,-0.551 -1.4,-0.144 -2.261,0.444 -2.811,1.761 -0.424,1.017 -0.084,1.86 0.917,2.289 0.252,0.11 0.568,0.187 0.726,0.382 0.68,0.846 1.531,1.338 2.605,1.456 0.018,0.002 0.027,0.082 0.044,0.14 -2.191,0.97 -1.281,2.412 -0.472,3.857 -0.271,-0.076 -0.411,-0.169 -0.558,-0.247 -1.424,-0.756 -2.242,-0.723 -3.165,0.127 -0.82,0.755 -0.768,1.795 0.22,2.286 0.935,0.465 1.93,0.917 2.946,1.084 1.196,0.197 2.677,-0.503 1.939,-2.204 -0.035,-0.082 -0.042,-0.178 -0.103,-0.451 0.693,0.281 1.358,0.394 1.976,0.349 1.74,-3.332 3.443,-6.968 5.064,-10.682 -0.332,0.057 -0.663,0.252 -0.954,0.6 z"
   id="path57" />
	<path
   d="m 325.391,535.82 c 1.384,0.705 1.71,-0.619 2.438,-1.255 0.577,1.301 1.545,1.767 2.865,1.637 0.822,-0.083 1.659,-0.038 2.477,-0.159 0.468,-0.07 1.063,-0.231 1.323,-0.568 0.592,-0.758 0.405,-1.68 0.055,-2.505 -0.282,-0.665 -0.912,-0.858 -1.603,-0.935 -0.867,-0.095 -1.728,-0.248 -2.589,-0.393 -1.229,-0.208 -2.278,0.002 -2.771,1.502 -0.028,0.088 -0.101,0.164 -0.089,0.146 -0.389,-0.303 -0.75,-0.563 -1.092,-0.853 -0.438,-0.371 -0.366,-0.6 0.161,-0.859 0.438,-0.218 0.96,-0.428 1.229,-0.797 0.367,-0.51 0.667,-1.046 0.876,-1.611 -1.654,1.315 -3.162,2.688 -4.513,4.032 0.077,1.198 0.211,2.098 1.233,2.618 z"
   id="path59" />
	<path
   d="m 355.423,525.601 c 0.229,0.924 1.086,0.93 1.789,1.1 0.568,0.135 1.162,0.174 1.757,0.256 -0.435,0.364 -0.815,0.672 -1.183,0.996 -0.335,0.297 -0.671,0.322 -0.844,-0.112 -0.29,-0.727 -0.807,-0.584 -1.301,-0.375 -1.136,0.48 -1.818,1.358 -1.869,2.595 -0.052,1.22 0.688,2.018 1.819,2.713 -0.417,-0.02 -0.696,0.024 -0.938,-0.055 -0.574,-0.188 -1.181,-0.115 -1.378,0.397 -0.182,0.472 -0.154,1.163 0.07,1.616 0.324,0.654 0.865,1.225 1.393,1.751 0.839,0.84 1.443,0.79 2.228,-0.075 0.901,-0.992 0.91,-1.737 0.002,-2.506 -0.333,-0.281 -0.708,-0.514 -1.065,-0.769 -0.01,-0.065 -0.018,-0.132 -0.027,-0.196 1.48,-0.104 2.983,-0.138 3.989,-1.432 0.896,-1.152 0.817,-2.737 -0.33,-4.221 0.293,-0.078 0.496,-0.134 0.699,-0.188 0.508,-0.134 1.088,-0.158 1.506,-0.432 0.426,-0.275 0.93,-0.754 1,-1.185 -1.442,-0.873 -2.87,-1.595 -4.277,-2.179 -0.581,0.095 -1.164,0.277 -1.746,0.555 -0.933,0.446 -1.444,1.143 -1.294,1.746 z"
   id="path61" />
	<path
   d="m 354.498,542.058 c -0.24,0.679 -0.09,1.163 0.451,1.587 1.698,1.331 4.194,0.829 5.208,-1.049 0.057,-0.104 0.127,-0.201 0.262,-0.413 0.208,0.262 0.396,0.443 0.52,0.663 0.343,0.606 1.104,0.944 1.785,0.757 1.352,-0.368 2.057,-1.05 1.976,-1.909 -0.01,-0.098 -0.02,-0.203 -0.058,-0.293 -0.422,-0.986 -0.835,-1.976 -1.282,-2.949 -0.217,-0.469 -1.107,-0.777 -1.648,-0.625 -0.638,0.18 -0.759,0.644 -0.704,1.229 0.041,0.449 0.073,0.904 0.049,1.353 -0.017,0.286 -0.144,0.566 -0.223,0.858 -0.648,-1.092 -1.239,-2.086 -1.829,-3.078 0.187,0 0.528,0.08 0.81,-0.019 0.494,-0.172 1.121,-0.337 1.378,-0.717 0.42,-0.62 0.678,-1.391 0.839,-2.133 0.251,-1.162 -0.521,-2.307 -1.488,-2.39 -1.383,-0.121 -2.214,0.644 -2.273,2.031 -0.013,0.301 -0.19,0.602 -0.32,0.888 -0.27,0.592 -0.347,1.148 0.188,1.646 0.119,0.11 0.214,0.249 0.425,0.499 -0.405,0.065 -0.68,0.147 -0.956,0.149 -1.154,0.008 -2.722,1.045 -2.927,2.453 -0.073,0.488 -0.025,1.011 -0.183,1.462 z"
   id="path63" />
	<path
   d="m 330.492,560.133 c 0.208,-0.309 0.372,-0.656 0.622,-0.924 0.897,-0.954 0.822,-1.509 -0.353,-2.101 -0.264,-0.133 -0.582,-0.158 -0.854,-0.281 -0.267,-0.121 -0.505,-0.305 -0.677,-0.413 0.383,-0.628 0.684,-1.12 1.017,-1.663 0.062,0.179 0.115,0.332 0.165,0.485 0.579,1.771 1.743,2.685 3.457,2.691 0.726,0.002 1.452,-0.02 2.177,-0.05 0.768,-0.029 1.082,-0.47 0.882,-1.206 -0.236,-0.874 -0.652,-1.144 -1.6,-1.323 -0.407,-0.077 -0.918,-0.354 -1.104,-0.693 -0.66,-1.197 -2.357,-1.559 -3.389,-0.635 -0.417,0.375 -0.699,0.282 -0.827,-0.278 -0.05,-0.219 -0.036,-0.463 -0.126,-0.663 -0.465,-1.045 -1.217,-1.688 -2.038,-1.22 -0.68,0.388 -1.348,0.877 -1.851,1.467 -0.775,0.91 -0.383,2.181 0.715,2.669 0.474,0.209 0.959,0.392 1.62,0.661 -1.499,0.884 -1.089,2.335 -1.29,3.402 -0.733,-0.225 -1.379,-0.582 -2.022,-0.576 -0.799,0.007 -1.254,0.788 -1.176,1.634 0.09,0.968 0.698,1.602 1.552,1.621 0.813,0.021 1.488,-0.564 1.612,-1.381 0.04,-0.267 0.115,-0.531 0.189,-0.866 1.379,1.284 2.289,1.156 3.299,-0.357 z"
   id="path65" />
	<path
   d="m 362.074,556.47 c -0.122,-0.245 -0.243,-0.512 -0.435,-0.694 -0.615,-0.586 -0.884,-1.315 -1.033,-2.126 -0.181,-0.98 -0.65,-1.234 -1.584,-0.888 -0.204,0.077 -0.401,0.18 -0.691,0.311 -0.069,-0.258 -0.148,-0.459 -0.172,-0.667 -0.186,-1.669 -1.45,-2.551 -3.109,-2.192 -0.244,0.052 -0.555,0.02 -0.779,-0.087 -0.724,-0.344 -1.396,-0.338 -2.06,0.13 -0.299,0.211 -0.612,0.402 -1.048,0.688 -0.028,-0.322 -0.095,-0.554 -0.059,-0.766 0.104,-0.603 -0.242,-0.954 -0.719,-1.069 -1.02,-0.246 -2.045,-0.267 -2.928,0.452 -0.533,0.43 -0.773,1.334 -0.561,1.992 0.186,0.57 0.969,1.219 1.616,1.115 0.69,-0.111 1.344,-0.453 2.091,-0.722 0.015,0.222 0.058,0.575 0.058,0.928 -10e-4,1.459 1.483,2.748 3.114,1.968 0.291,-0.14 0.6,-0.259 0.912,-0.332 1.104,-0.257 2.213,-0.492 3.217,-0.71 0.269,0.846 0.471,1.787 0.868,2.641 0.424,0.909 1.125,1.578 2.257,1.601 0.97,0.018 1.471,-0.704 1.045,-1.573 z"
   id="path67" />
	<path
   d="m 329.818,540.482 c 0.585,-0.221 0.771,0.009 0.914,0.496 0.195,0.67 0.419,1.329 0.618,1.998 0.061,0.204 0.081,0.42 0.106,0.558 -0.454,0.209 -0.897,0.303 -1.175,0.567 -0.468,0.445 -0.835,0.995 -1.237,1.509 -0.658,0.842 -0.612,1.222 0.239,2.047 0.542,0.523 0.935,0.502 1.679,-0.141 0.378,-0.325 0.783,-0.651 1.062,-1.055 0.21,-0.304 0.389,-0.765 0.318,-1.099 -0.156,-0.729 0.054,-0.828 0.715,-0.698 1.42,0.279 2.247,-0.406 2.312,-1.871 0.016,-0.323 -0.07,-0.651 -0.058,-0.975 0.027,-0.713 0.004,-1.444 0.159,-2.132 0.246,-1.107 -0.133,-2.062 -1.135,-2.493 -1.438,-0.619 -2.493,-0.401 -3.061,0.714 -0.299,0.592 -0.458,1.255 -0.69,1.917 -0.209,-0.468 -0.404,-0.956 -0.646,-1.42 -0.249,-0.481 -0.457,-1.033 -0.84,-1.382 -0.345,-0.313 -0.944,-0.609 -1.355,-0.53 -1.016,0.2 -1.568,1.624 -1.124,2.573 0.444,0.948 2.231,1.783 3.199,1.417 z"
   id="path69" />
	<path
   d="m 327.422,568.832 c 0.031,0.178 0.068,0.296 0.07,0.414 0.012,1.352 0.681,1.924 2.014,1.721 1.499,-0.231 3.827,-2.168 3.985,-4.017 0.117,-1.338 -0.679,-2.247 -1.891,-2.075 -0.826,0.12 -1.201,0.742 -1.628,1.33 -0.382,0.525 -0.781,1.039 -1.173,1.559 -0.082,-0.047 -0.166,-0.094 -0.248,-0.143 0.06,-0.185 0.098,-0.383 0.187,-0.554 0.149,-0.289 0.34,-0.556 0.497,-0.84 0.386,-0.695 0.268,-1.479 -0.277,-1.909 -0.468,-0.371 -1.268,-0.354 -1.781,0.191 -0.376,0.398 -0.646,0.938 -0.841,1.459 -0.276,0.736 -0.746,1.005 -1.424,0.617 0.175,-0.218 0.413,-0.404 0.501,-0.645 0.177,-0.494 0.436,-1.042 0.362,-1.524 -0.09,-0.595 -0.702,-0.757 -1.288,-0.844 -0.379,-0.056 -0.731,-0.036 -1.073,0.015 0.655,1.829 1.347,3.705 2.071,5.598 0.42,0.13 1.025,0.004 1.937,-0.353 z"
   id="path71" />
	<path
   d="m 330.062,573.437 c -0.621,-1.127 -1.611,-1.783 -2.746,-2.217 -0.355,-0.137 -0.735,-0.199 -1.094,-0.137 0.805,2.048 1.645,4.103 2.516,6.127 1.477,-0.556 2.132,-2.304 1.324,-3.773 z"
   id="path73" />
	<path
   d="m 345.423,563.658 c -0.006,0.004 -0.011,0.008 -0.016,0.012 0,0.002 -10e-4,0.004 -10e-4,0.007 0.005,-0.008 0.012,-0.013 0.017,-0.019 z"
   id="path75" />
	<path
   d="m 340.454,563.111 c 0.535,-0.148 1.035,-0.421 1.731,-0.713 -0.095,0.364 -0.216,0.639 -0.229,0.916 -0.02,0.499 -0.142,1.102 0.083,1.478 0.294,0.491 0.937,0.582 1.476,0.229 0.647,-0.426 1.261,-0.899 1.892,-1.351 0.013,-0.173 0.012,-0.348 0.043,-0.518 0.166,-0.887 -0.318,-1.52 -1.008,-1.813 -0.369,-0.159 -0.967,0.169 -1.445,0.327 -0.231,0.076 -0.428,0.262 -0.827,0.521 0.708,-1.583 0.693,-2.821 -1.017,-3.578 0.269,-0.144 0.424,-0.182 0.515,-0.28 0.405,-0.44 0.947,-0.84 1.144,-1.364 0.243,-0.653 -0.129,-1.299 -0.719,-1.683 -1.451,-0.946 -2.941,-0.594 -3.917,0.694 -1.009,1.33 -1.299,2.914 -1.104,4.552 0.188,1.585 1.465,3.115 3.382,2.583 z"
   id="path77" />
	<path
   d="m 338.37,531.128 c 0.042,0.143 0.116,0.416 0.201,0.686 0.356,1.119 1.043,1.509 2.09,1.161 0.207,-0.069 0.396,-0.207 0.569,-0.345 0.804,-0.637 1.521,-1.279 2.746,-0.972 0.944,0.238 1.634,-0.507 1.631,-1.498 -0.002,-1.13 -0.392,-2.116 -1.281,-2.854 -1.077,-0.89 -2.148,-0.771 -2.864,0.371 -0.223,0.354 -0.166,0.872 -0.331,1.276 -0.104,0.259 -0.343,0.549 -0.59,0.641 -0.311,0.114 -0.712,-0.03 -1.033,0.068 -0.33,0.104 -0.612,0.365 -0.771,0.465 -0.49,-0.943 -0.97,-1.87 -1.452,-2.799 -0.904,-0.216 -1.747,-0.58 -2.738,-0.065 -1.434,0.744 -2.069,2.713 -0.621,3.819 0.818,0.625 1.697,1.07 2.688,0.939 0.588,-0.075 1.124,-0.555 1.756,-0.893 z"
   id="path79" />
	<path
   d="m 337.276,527.311 c 0.003,0.006 0.007,0.013 0.01,0.019 0.004,10e-4 0.007,0.002 0.011,0.003 z"
   id="path81" />
	<path
   d="m 326.439,551.449 c 0.492,-0.744 0.239,-1.622 -0.348,-2.299 -0.442,-0.508 -1.003,-0.715 -1.68,-0.359 -0.173,0.093 -0.42,0.049 -0.736,0.075 0.621,-0.464 1.13,-0.794 1.579,-1.193 0.457,-0.409 0.53,-0.978 0.087,-1.397 -0.587,-0.555 -1.255,-1.041 -1.95,-1.452 -0.195,-0.116 -0.782,0.041 -0.891,0.238 -0.329,0.591 -0.632,0.565 -1.141,0.245 -0.782,-0.491 -1.151,-0.395 -1.95,0.437 -0.491,0.511 -0.432,1.108 -0.107,1.666 0.607,1.037 1.527,1.537 2.741,1.506 0.389,-0.011 0.78,0.055 1.17,0.086 0.003,0.081 0.005,0.161 0.009,0.239 -0.168,0.077 -0.338,0.226 -0.503,0.22 -0.597,-0.018 -1.196,-0.157 -1.784,-0.115 -0.489,0.035 -1.295,0.161 -1.373,0.422 -0.134,0.447 0.062,1.121 0.352,1.539 0.493,0.709 1.12,1.348 1.784,1.905 0.345,0.287 0.907,0.503 1.343,0.461 1.491,-0.141 2.611,-1.032 3.398,-2.224 z"
   id="path83" />
	<path
   d="m 345.018,532.529 c -1.702,-0.4 -4.755,0.415 -5.446,2.777 -0.254,-0.73 -0.411,-1.309 -0.648,-1.85 -0.417,-0.953 -0.861,-1.135 -1.86,-0.876 -0.207,0.052 -0.443,0.073 -0.647,0.03 -0.456,-0.097 -0.688,0.097 -0.892,0.483 -0.535,1.013 -0.502,2.073 -0.291,3.144 0.181,0.917 1.313,1.587 2.071,1.165 0.589,-0.326 1.072,-0.842 1.604,-1.271 0.147,-0.118 0.34,-0.35 0.444,-0.317 0.173,0.054 0.353,0.258 0.419,0.441 0.322,0.883 0.97,1.301 1.869,1.398 1.463,0.157 2.798,-0.145 3.909,-1.154 0.687,-0.624 1.218,-1.354 1.063,-2.355 -0.141,-0.906 -0.784,-1.424 -1.595,-1.615 z"
   id="path85" />
	<path
   d="m 319.337,551.438 c 0.372,1.184 0.778,2.451 1.216,3.788 0.154,-1.447 -0.233,-2.72 -1.216,-3.788 z"
   id="path87" />
	<path
   d="m 347.792,566.965 c -0.605,-0.551 -1.52,-0.288 -1.759,0.509 -0.272,0.902 -0.487,1.837 -0.582,2.773 -0.131,1.284 -0.073,1.29 1.11,1.475 0.02,0.004 0.037,0.035 0.15,0.143 -0.114,0.336 -0.244,0.723 -0.417,1.236 -0.267,-0.307 -0.396,-0.452 -0.522,-0.6 -0.65,-0.758 -1.359,-1.014 -2.031,-0.735 -0.959,0.399 -1.567,1.287 -1.514,2.208 0.063,1.09 1.481,2.245 2.85,2.324 1.026,0.059 1.66,-0.594 1.573,-1.626 -0.024,-0.294 -0.069,-0.585 -0.125,-1.027 0.383,0.264 0.593,0.444 0.833,0.569 0.77,0.398 1.572,0.563 2.364,0.095 0.723,-0.426 0.94,-1.102 0.899,-1.926 -0.115,-2.247 -1.231,-3.967 -2.829,-5.418 z"
   id="path89" />
	<path
   d="m 377.52,543.394 c 0.294,0.412 0.747,0.676 1.258,0.826 0.397,-1.225 0.612,-1.915 0.612,-1.915 -0.377,-0.546 -0.754,-1.065 -1.13,-1.587 -0.153,0.106 -0.312,0.208 -0.453,0.324 -0.76,0.622 -0.845,1.571 -0.287,2.352 z"
   id="path91" />
	<path
   d="m 342.355,538.275 c -0.475,-0.221 -1.12,-0.145 -1.68,-0.104 -0.696,0.051 -1.203,0.593 -0.984,1.213 0.429,1.209 0.094,2.697 1.318,3.596 -0.061,0.106 -0.089,0.178 -0.138,0.229 -0.593,0.605 -0.793,1.759 -0.44,2.571 0.402,0.933 1.102,1.316 2.153,1.294 0.427,-0.009 0.886,0.087 1.283,0.253 1.127,0.47 2.048,0.128 2.346,-1.047 0.162,-0.639 0.204,-1.358 0.092,-2.007 -0.243,-1.396 -0.96,-1.922 -2.384,-1.945 -0.403,-0.007 -0.809,-10e-4 -1.296,-10e-4 0.103,-0.223 0.116,-0.307 0.166,-0.35 1.423,-1.234 1.261,-2.913 -0.436,-3.702 z"
   id="path93" />
	<path
   d="m 332.692,584.839 c -0.046,-0.709 -0.475,-1.169 -1.064,-1.293 0.365,0.752 0.733,1.494 1.105,2.222 0.016,-0.31 -0.023,-0.615 -0.041,-0.929 z"
   id="path95" />
	<path
   d="m 366.426,547.85 c -0.349,0.065 -0.712,0.046 -0.962,0.058 0.39,-0.59 0.841,-1.071 1.043,-1.638 0.185,-0.521 0.133,-1.14 0.13,-1.714 -0.005,-0.821 -0.517,-1.22 -1.318,-1.078 -1.665,0.291 -1.746,0.379 -1.937,2.055 -0.005,0.051 -0.011,0.1 -0.018,0.149 -0.263,1.82 -0.263,1.819 1.531,2.331 0.042,0.011 0.072,0.063 0.194,0.181 -0.218,0.184 -0.408,0.336 -0.589,0.499 -0.91,0.83 -0.969,2.416 -0.121,3.313 0.442,0.466 0.892,0.925 1.339,1.385 0.938,0.963 2.149,0.888 2.961,-0.183 0.89,-1.171 0.857,-3 -0.079,-4.444 -0.537,-0.834 -1.197,-1.095 -2.174,-0.914 z"
   id="path97" />
	<path
   d="m 350.945,541.378 c -1.365,-0.045 -2.64,0.533 -3.741,1.516 -0.503,0.449 -0.768,0.977 -0.208,1.606 0.347,0.392 0.399,0.79 0.1,1.298 -0.359,0.609 -0.306,1.251 0.288,1.759 0.933,0.796 1.979,1.055 3.146,0.638 1.582,-0.564 2.616,-1.607 3.107,-3.277 0.617,-2.104 -0.4,-3.606 -2.692,-3.54 z"
   id="path99" />
	<path
   d="m 357.365,545.048 c -1.272,-0.855 -3.169,-0.111 -3.414,1.41 -0.058,0.363 -0.185,0.719 -0.308,1.068 -0.196,0.555 -0.201,1.1 0.394,1.353 0.604,0.257 1.263,0.481 1.907,0.508 0.673,0.03 1.356,-0.192 2.106,-0.315 -0.34,1.009 0.358,2.447 1.285,2.787 1.128,0.415 2.734,-0.039 3.466,-0.982 0.673,-0.867 0.654,-1.736 -0.055,-2.59 -0.597,-0.72 -1.822,-0.979 -2.609,-0.563 -0.429,0.224 -0.869,0.423 -1.305,0.633 -0.057,-0.121 -0.084,-0.164 -0.097,-0.211 -0.011,-0.048 -0.021,-0.103 -0.009,-0.149 0.342,-1.351 -0.268,-2.213 -1.361,-2.949 z"
   id="path101" />
	<path
   d="m 336.115,589.442 c 0.26,0.197 0.353,0.275 0.454,0.343 1.253,0.836 2.647,0.705 3.443,-0.328 0.443,-0.577 0.433,-1.229 0.194,-1.859 -0.23,-0.614 -0.826,-0.564 -1.35,-0.584 -0.478,-0.019 -0.952,-0.006 -1.43,-0.021 -1.111,-0.03 -1.396,0.251 -1.393,1.349 10e-4,0.266 -0.063,0.531 -0.124,1.014 -0.539,-0.877 -1.184,-1.183 -1.917,-1.202 0.631,1.154 1.271,2.263 1.917,3.317 0.026,-0.129 0.071,-0.24 0.083,-0.383 0.04,-0.491 0.074,-0.981 0.123,-1.646 z"
   id="path103" />
	<path
   d="m 339.945,551.337 c 0.504,0.299 0.903,0.592 0.861,1.324 -0.015,0.3 0.444,0.726 0.786,0.919 0.321,0.184 0.773,0.139 1.169,0.192 2.459,-0.184 3.996,-2.09 3.613,-4.521 -0.115,-0.741 -0.649,-1.093 -1.403,-0.944 -1.272,0.249 -2.534,0.253 -3.786,-0.16 -0.351,-0.116 -0.736,-0.159 -1.108,-0.167 -0.841,-0.018 -1.246,0.402 -1.274,1.228 -0.036,0.935 0.331,1.65 1.142,2.129 z"
   id="path105" />
	<path
   d="m 369.987,564.698 c -0.088,0.637 0.139,1.015 0.781,1.14 0.087,0.017 0.175,0.044 0.264,0.071 0.39,-0.994 0.769,-1.979 1.139,-2.948 -0.096,0.025 -0.192,0.048 -0.288,0.051 -1.181,0.027 -1.736,0.529 -1.896,1.686 z"
   id="path107" />
	<path
   d="m 344.964,569.693 c 0.236,-0.985 -0.339,-2.405 -1.262,-2.732 -1.022,-0.363 -1.827,-0.907 -2.566,-1.708 -0.923,-0.995 -3.163,-0.553 -3.597,0.595 -0.694,1.833 0.103,3.16 2.05,3.436 0.75,0.106 1.398,0.323 1.897,1.026 0.319,0.451 0.967,0.671 1.47,0.993 1.033,-0.21 1.815,-0.803 2.008,-1.61 z"
   id="path109" />
	<path
   d="m 353.346,579.507 c -1.247,0.18 -2.236,0.781 -2.995,1.699 -1.143,1.384 -0.702,2.941 0.976,3.637 0.566,0.234 1.19,0.326 1.787,0.483 0.011,-0.033 0.02,-0.065 0.028,-0.099 0.251,-0.015 0.509,0.01 0.749,-0.045 1.212,-0.273 2.227,-0.826 2.831,-1.982 0.683,-1.308 -1.41,-3.974 -3.376,-3.693 z"
   id="path111" />
	<path
   d="m 367.676,530.93 c -0.177,0.423 -0.049,0.983 -0.02,1.481 0.042,0.689 0.45,1.085 1.095,1.264 0.351,0.099 0.702,0.191 1.268,0.343 -1.052,0.393 -1.639,0.913 -1.459,1.91 0.1,0.536 1.037,1.137 1.779,1.177 0.841,0.043 1.71,-0.388 1.827,-1.014 0.185,-0.982 -0.402,-1.579 -1.298,-2.021 0.525,-0.231 0.986,-0.429 1.435,-0.634 -1.245,-1.328 -2.484,-2.537 -3.715,-3.62 -0.376,0.184 -0.735,0.695 -0.912,1.114 z"
   id="path113" />
	<path
   d="m 346.508,532.5 c 0.176,0.583 0.658,1.105 1.088,1.574 0.374,0.408 0.823,0.487 1.288,-0.024 0.443,-0.486 0.981,-0.711 1.684,-0.341 0.311,0.166 0.803,0.165 1.15,0.05 0.962,-0.313 2.002,-2.217 1.835,-3.217 -0.018,-0.096 -0.048,-0.197 -0.098,-0.279 -0.626,-0.985 -1.522,-1.478 -2.921,-1.466 -0.539,0.11 -1.329,0.176 -2.048,0.438 -1.737,0.635 -2.514,1.478 -1.978,3.265 z"
   id="path115" />
	<path
   d="m 351.018,522.723 c 0.017,0.017 0.011,0.047 0.047,0.214 -0.391,0.022 -0.732,0.026 -1.071,0.064 -0.714,0.078 -1.289,0.939 -1.044,1.598 0.512,1.383 1.578,2.338 2.641,3.283 0.152,0.134 0.407,0.188 0.622,0.214 0.763,0.089 1.793,-0.58 2.111,-1.406 0.291,-0.756 -0.125,-1.298 -0.665,-1.76 -0.283,-0.243 -0.59,-0.46 -0.886,-0.691 -0.232,-0.183 -0.465,-0.364 -0.697,-0.547 0.036,-0.065 0.07,-0.13 0.107,-0.193 0.187,0.064 0.383,0.111 0.559,0.198 0.357,0.177 0.691,0.397 1.054,0.558 0.667,0.297 1.129,-0.063 1.439,-0.587 0.286,-0.484 0.193,-0.999 -0.29,-1.33 -0.18,-0.124 -0.364,-0.243 -0.546,-0.365 -1.383,-0.332 -2.744,-0.538 -4.08,-0.632 -0.207,0.601 0.337,0.967 0.699,1.382 z"
   id="path117" />
	<path
   d="m 341.005,581.231 c 0.848,0.355 2.008,-0.048 2.727,-0.808 1.36,-1.44 0.967,-2.396 0.135,-3.436 -0.589,-0.736 -1.347,-1.343 -2.052,-1.98 -0.52,-0.468 -1.053,-0.441 -1.509,0.098 -0.548,0.648 -1.076,1.322 -1.545,2.028 -0.239,0.357 -0.328,0.813 -0.418,1.051 0.123,1.886 1.367,2.502 2.662,3.047 z"
   id="path119" />
	<path
   d="m 364.309,557.056 c -1.469,0.099 -2.552,1.688 -2.043,3.019 0.384,1.003 0.557,2.075 1.767,2.741 -1.243,0.338 -1.643,1.176 -1.921,2.116 -0.206,0.694 0.075,1.172 0.656,1.507 0.608,0.35 1.242,0.463 1.811,-0.055 0.871,-0.793 0.834,-2.678 -0.065,-3.432 -0.445,-0.375 -0.331,-0.528 0.124,-0.794 0.614,-0.361 1.224,-0.776 1.72,-1.282 0.654,-0.67 0.625,-1.563 0.19,-2.303 -0.481,-0.817 -1.146,-1.589 -2.239,-1.517 z"
   id="path121" />
	<path
   d="m 373.012,553.936 c -0.905,0.12 -1.838,-0.001 -2.749,0.089 -0.614,0.06 -1.263,0.206 -1.802,0.49 -0.49,0.26 -0.898,0.724 -1.26,1.164 -0.283,0.346 -0.438,0.792 -0.65,1.194 0.128,1.681 1.675,2.63 3.174,1.885 0.77,-0.384 1.558,-0.815 2.172,-1.399 0.497,-0.474 0.954,-0.659 1.618,-0.695 0.541,-0.029 1,-0.352 1.267,-0.767 0.081,-0.228 0.162,-0.454 0.242,-0.678 0.008,-0.099 0.004,-0.196 -0.014,-0.293 -0.14,-0.781 -0.985,-1.122 -1.998,-0.99 z"
   id="path123" />
	<path
   d="m 364.425,539.145 c 0.231,2.169 1.326,3.169 3.458,3.173 0.451,-0.02 0.906,-0.009 1.353,-0.065 1.529,-0.198 2.52,-1.235 2.395,-2.475 -0.186,-1.834 -0.866,-2.375 -2.828,-2.196 -1.164,0.106 -2.325,0.247 -3.485,0.388 -0.617,0.074 -0.96,0.546 -0.893,1.175 z"
   id="path125" />
	<path
   d="m 331.456,581.358 c 0.213,-0.348 0.501,-0.542 0.71,-0.067 0.649,1.49 1.851,1.765 3.282,1.588 0.793,-0.097 1.416,-0.732 1.534,-1.523 0.15,-0.99 -0.02,-1.938 -0.899,-2.465 -0.899,-0.538 -1.98,-0.509 -2.878,0.01 -0.624,0.362 -1.076,1.025 -1.66,1.612 -0.057,-0.134 -0.13,-0.286 -0.186,-0.444 -0.325,-0.939 -1.091,-1.46 -1.999,-1.427 0.499,1.131 1.006,2.249 1.521,3.348 0.204,-0.133 0.396,-0.338 0.575,-0.632 z"
   id="path127" />
	<path
   d="m 334.07,574.019 c 0.177,-0.207 0.417,-0.36 0.605,-0.558 0.825,-0.858 0.557,-2.262 -0.453,-2.883 -0.926,-0.572 -2.055,-0.294 -3.049,0.48 -0.909,0.706 -1.037,1.318 -0.414,2.268 0.691,1.052 0.592,2.015 -0.053,3.006 -0.095,0.146 -0.189,0.301 -0.239,0.465 -0.285,0.903 -0.008,1.967 1.29,1.856 1.307,-0.016 2.3,-1.359 1.782,-2.544 -0.394,-0.902 0.018,-1.486 0.531,-2.09 z"
   id="path129" />
	<path
   d="m 350.04,593.108 c 0.547,-0.438 0.773,-1.204 0.375,-2.035 -0.402,-0.835 -0.988,-1.193 -1.875,-1.232 -1.158,-0.052 -2.05,0.319 -2.56,1.428 -0.101,0.218 -0.283,0.412 -0.466,0.575 -0.656,0.591 -0.979,1.315 -0.958,2.197 -0.022,0.87 0.452,1.705 1.115,1.967 0.862,0.34 1.984,0.11 2.547,-0.584 0.615,-0.761 1.009,-1.663 1.822,-2.316 z"
   id="path131" />
	<path
   d="m 372.786,538.027 c -1.011,1.527 0.095,3.635 1.926,3.727 1.47,0.074 2.573,-0.496 3.157,-1.583 -0.982,-1.338 -1.962,-2.589 -2.938,-3.763 -0.871,0.266 -1.599,0.797 -2.145,1.619 z"
   id="path133" />
	<path
   d="m 332.046,547.11 c -1.156,1.085 -1.67,2.529 -2.258,4.032 0.197,0.479 0.283,1.002 0.577,1.344 0.935,1.081 3.146,0.954 3.808,-0.53 0.204,-0.455 0.55,-0.86 0.687,-1.331 0.253,-0.864 1.019,-1.76 0.156,-2.65 -0.401,-0.414 -0.982,-0.647 -1.463,-0.992 -0.551,-0.398 -1.085,-0.269 -1.507,0.127 z"
   id="path135" />
	<path
   d="m 327.387,545.277 c 0.917,0.052 1.472,-0.414 1.845,-1.186 0.331,-0.689 0.387,-1.417 -0.095,-1.993 -0.78,-0.933 -1.618,-1.831 -2.858,-2.208 -0.939,-0.286 -1.646,-0.156 -2.235,0.513 -0.672,0.762 -0.838,1.684 -0.416,2.503 0.787,1.53 2.175,2.119 3.759,2.371 z"
   id="path137" />
	<path
   d="m 349.297,534.835 c -0.635,0.301 -0.796,1.425 -0.182,1.733 0.813,0.412 1.035,1.02 1.118,1.859 0.127,1.271 1.042,2.079 2.162,2.076 1.659,0.092 3.235,-1.437 2.047,-3.235 -0.192,-0.29 -0.354,-0.604 -0.558,-0.885 -1.293,-1.776 -3.237,-2.184 -4.587,-1.548 z"
   id="path139" />
	<path
   d="m 361.892,531.845 c 1.354,0.77 4.179,0.009 5.03,-1.293 0.541,-0.828 0.311,-1.784 -0.559,-2.232 -0.645,-0.333 -1.298,-0.649 -1.958,-0.949 -1.55,-0.706 -2.01,-0.523 -2.747,0.607 -0.394,0.602 -0.497,1.391 -0.732,2.096 0.054,0.793 0.344,1.418 0.966,1.771 z"
   id="path141" />
	<path
   d="m 324.198,539.293 c 0.731,-0.508 1.229,-1.264 0.911,-2.207 -0.466,-1.38 -1.086,-2.174 -2.501,-2.287 -1.142,1.22 -2.138,2.382 -2.971,3.41 10e-4,0.003 10e-4,0.005 0.002,0.007 1.036,2.004 2.765,2.326 4.559,1.077 z"
   id="path143" />
	<path
   d="m 335.573,560.67 c 0.374,-0.21 0.7,-0.782 0.751,-1.222 0.053,-0.476 -0.82,-0.92 -1.409,-0.855 -0.767,0.084 -1.531,0.19 -2.3,0.241 -0.666,0.044 -0.997,0.399 -1.265,0.982 -0.241,0.531 -0.606,1.02 -0.986,1.471 -0.302,0.359 -0.726,0.612 -1.059,0.946 -0.478,0.479 -0.494,1.034 0.063,1.399 0.591,0.385 1.286,0.608 1.937,0.903 0.695,-0.091 1.647,-0.605 1.829,-1.165 0.411,-1.275 1.296,-2.064 2.439,-2.7 z"
   id="path145" />
	<path
   d="m 357.976,564.506 c 0.817,0.592 1.693,0.676 2.558,0.273 1.036,-0.48 1.41,-1.415 1.4,-2.533 -0.033,-1.595 -0.692,-2.839 -2.099,-3.642 -0.546,-0.313 -1.136,-0.336 -1.588,0.132 -0.455,0.472 -0.741,1.021 -0.152,1.649 0.352,0.377 0.247,0.689 -0.152,1.064 -1.007,0.946 -0.938,2.355 0.033,3.057 z"
   id="path147" />
	<path
   d="m 345.927,588.011 c -0.241,-1.042 -1.425,-1.911 -2.748,-1.963 -0.713,-0.028 -1.381,0.135 -1.595,0.946 -0.298,1.129 -0.633,2.257 -0.81,3.406 -0.132,0.867 0.65,1.374 1.976,1.538 0.539,-0.225 1.109,-0.396 1.61,-0.687 1.158,-0.669 1.827,-2.117 1.567,-3.24 z"
   id="path149" />
	<path
   d="m 361.669,567.694 c 0.257,-0.693 0.001,-1.438 -0.624,-1.821 -1.988,-1.215 -4.93,-0.067 -5.494,2.203 -0.102,0.409 0.087,0.982 0.325,1.368 0.468,0.756 1.319,0.701 2.041,0.747 1.56,0.02 3.244,-1.115 3.752,-2.497 z"
   id="path151" />
	<path
   d="m 360.191,589.628 c 0.378,-0.67 0.756,-1.359 1.132,-2.063 -0.672,0.513 -1.126,1.187 -1.132,2.063 z"
   id="path153" />
	<path
   d="m 339.374,574.558 c 0.485,-0.255 1.055,-0.422 1.438,-0.783 0.868,-0.818 1.347,-2.523 -0.255,-3.328 -0.688,-0.346 -1.435,-0.583 -2.101,-0.966 -0.711,-0.407 -1.304,-0.26 -1.855,0.22 -0.588,0.513 -1.103,1.162 -0.864,1.963 0.454,1.513 1.772,2.75 3.637,2.894 z"
   id="path155" />
	<path
   d="m 341.185,596.919 c -0.306,-0.406 -1.395,-0.851 -2.231,-0.988 0.865,1.119 1.737,2.12 2.614,2.973 0.188,-0.643 0.077,-1.369 -0.383,-1.985 z"
   id="path157" />
	<path
   d="m 342.442,524.831 c 0.362,0.602 0.828,0.979 1.56,0.989 1.196,0.02 2.273,-0.34 3.199,-1.077 0.758,-0.603 0.842,-1.632 0.288,-2.416 -0.311,-0.439 -0.687,-0.736 -1.11,-0.949 -1.342,0.12 -2.652,0.347 -3.93,0.66 -0.479,0.795 -0.491,1.994 -0.007,2.793 z"
   id="path159" />
	<path
   d="m 370.756,542.625 c -0.73,0.251 -1.489,0.421 -2.222,0.669 -0.312,0.105 -0.639,0.268 -0.872,0.494 -0.925,0.898 -0.412,2.447 0.281,3.193 0.997,1.073 1.862,0.924 3.407,0.192 0.843,-0.397 1.331,-1.041 1.238,-2.024 -0.012,-0.2 -0.006,-0.403 -0.04,-0.6 -0.069,-0.395 -0.134,-0.79 -0.247,-1.172 -0.239,-0.809 -0.751,-1.025 -1.545,-0.752 z"
   id="path161" />
	<path
   d="m 341.906,585.282 c 0.821,-2.324 0.258,-3.422 -1.959,-3.41 -0.101,0.002 -0.2,0.002 -0.302,0.002 -0.899,0.007 -1.849,-0.105 -2.439,0.802 -0.931,1.424 -1.072,2.469 0.191,3.154 1.004,0.547 2.311,0.618 3.499,0.71 0.67,0.051 0.827,-0.734 1.01,-1.258 z"
   id="path163" />
	<path
   d="m 345.595,585.625 c 0.594,-0.126 1.31,-0.234 1.998,-0.437 1.202,-0.353 1.891,-1.612 1.604,-2.832 -0.183,-0.771 -0.936,-1.273 -1.698,-1.125 -1.192,0.229 -2.384,0.467 -3.577,0.695 -0.953,0.183 -1.447,1.423 -1.014,2.28 0.554,1.097 1.546,1.222 2.687,1.419 z"
   id="path165" />
	<path
   d="m 345.429,563.653 c -0.016,0.3 -0.012,0.6 -0.049,0.896 -0.12,1 0.859,2.026 1.859,1.937 1.921,-0.172 3.046,-1.229 3.213,-3.131 0.066,-0.768 0.021,-1.658 -0.707,-2.095 -1.158,-0.692 -3.42,-0.152 -3.766,1.647 -0.052,0.276 -0.357,0.502 -0.557,0.751 -0.005,0.006 -0.012,0.012 -0.017,0.019 0.001,-10e-4 0.023,-0.023 0.024,-0.024 z"
   id="path167" />
	<path
   d="m 354.483,593.825 c -1.801,-0.401 -3.495,-0.067 -5.018,0.967 -0.752,0.511 -0.829,1.229 -0.24,1.936 0.618,0.74 1.502,0.83 2.435,0.983 0.966,-0.23 1.942,-0.424 2.893,-0.703 0.964,-0.282 1.328,-0.782 1.307,-1.596 -0.02,-0.704 -0.572,-1.408 -1.377,-1.587 z"
   id="path169" />
	<path
   d="m 360.007,570.706 c -0.465,-0.089 -0.946,-0.131 -1.421,-0.141 -1.47,-0.027 -2.233,0.731 -2.242,2.193 -0.013,1.733 1.208,2.808 2.905,2.506 0.506,-0.092 1.018,-0.286 1.471,-0.537 0.797,-0.443 1.281,-1.492 1.14,-2.28 -0.155,-0.864 -0.866,-1.554 -1.853,-1.741 z"
   id="path171" />
	<path
   d="m 354.219,571.848 c -0.561,-0.393 -1.253,-0.521 -1.817,-0.006 -1.04,0.948 -1.383,2.272 -1.823,3.407 0.063,0.378 0.057,0.619 0.146,0.816 0.668,1.486 2.14,1.8 3.345,0.727 0.205,-0.183 0.427,-0.356 0.595,-0.572 1.4,-1.789 1.397,-3.084 -0.446,-4.372 z"
   id="path173" />
	<path
   d="m 366.214,565.429 c -1.064,0.605 -1.124,1.535 -0.767,2.533 0.269,0.752 0.493,1.433 0.344,2.238 -0.095,0.516 -0.096,1.1 0.548,1.33 0.614,0.22 1.186,0.095 1.655,-0.379 0.14,-0.141 0.302,-0.296 0.362,-0.475 0.465,-1.339 0.904,-2.686 1.309,-3.9 -0.142,-0.533 -0.143,-0.931 -0.334,-1.182 -0.596,-0.778 -2.01,-0.792 -3.117,-0.165 z"
   id="path175" />
	<path
   d="m 357.277,561.277 c 0.063,-0.649 -0.057,-1.316 -0.04,-1.975 0.011,-0.368 0.099,-0.746 0.225,-1.096 0.175,-0.486 0.417,-0.948 0.673,-1.514 -0.341,-0.54 -0.581,-1.154 -1.021,-1.549 -0.369,-0.331 -0.893,-0.5 -1.524,-0.278 -1.214,0.425 -1.889,2.159 -1.048,3.312 0.424,0.583 0.367,1.127 0.222,1.772 -0.104,0.46 -0.014,0.977 0.055,1.46 0.097,0.689 0.626,0.884 1.219,0.854 0.617,-0.031 1.172,-0.304 1.239,-0.986 z"
   id="path177" />
	<path
   d="m 346.041,537.167 c -0.821,0.319 -2.091,2.273 -2.045,3.152 0.003,0.073 0.031,0.146 0.05,0.22 0.262,0.992 1.174,1.696 2.251,1.818 0.451,-0.183 0.935,-0.314 1.35,-0.558 1.191,-0.701 1.747,-1.758 1.554,-2.825 -0.269,-1.476 -1.782,-2.343 -3.16,-1.807 z"
   id="path179" />
	<path
   d="m 356.647,590.749 c -0.929,0.796 -1.075,1.839 -0.773,2.941 0.165,0.602 0.578,0.941 1.077,1.167 0.833,-1.206 1.669,-2.532 2.502,-3.948 -0.23,-0.152 -0.476,-0.289 -0.743,-0.399 -0.679,-0.28 -1.437,-0.299 -2.063,0.239 z"
   id="path181" />
	<path
   d="m 364.197,532.86 c -1.36,0.366 -2.005,1.534 -1.715,3.17 0.152,0.86 0.574,1.205 1.627,1.186 0.631,-0.065 1.429,-0.148 2.229,-0.23 1.493,-0.154 1.824,-0.727 1.419,-2.158 -0.463,-1.635 -2.195,-2.334 -3.56,-1.968 z"
   id="path183" />
	<path
   d="m 374.432,552.442 c 0.336,0.435 0.739,0.771 1.215,1.021 0.592,-1.682 1.126,-3.231 1.591,-4.605 -0.841,0.133 -1.564,0.606 -2.301,1.047 -0.927,0.553 -1.166,1.681 -0.505,2.537 z"
   id="path185" />
	<path
   d="m 351.781,561.23 c 0.98,0.076 1.775,-0.241 2.159,-1.168 0.428,-1.033 -0.312,-3.12 -1.283,-3.677 -0.264,-0.149 -0.748,-0.23 -0.963,-0.087 -1.038,0.691 -2.07,1.418 -2.671,2.572 -0.251,0.485 -0.23,0.919 0.133,1.387 0.691,0.895 1.666,0.9 2.625,0.973 z"
   id="path187" />
	<path
   d="m 371.917,557.915 c -0.979,0.444 -1.183,1.196 -1.041,2.111 -0.247,1.509 0.522,2.132 1.576,2.191 0.589,-1.557 1.15,-3.073 1.681,-4.528 -0.538,-0.243 -1.183,-0.244 -2.216,0.226 z"
   id="path189" />
	<path
   d="m 319.386,539.064 c -0.043,-0.123 -0.097,-0.242 -0.142,-0.363 -0.739,0.931 -1.33,1.729 -1.765,2.338 0.102,0.008 0.202,0.016 0.31,0.013 1.124,-0.051 1.942,-1.017 1.597,-1.988 z"
   id="path191" />
	<path
   d="m 351.142,590.195 c -0.016,0.548 10e-4,1.104 -0.079,1.642 -0.128,0.854 0.192,1.358 1.056,1.303 1.456,-0.095 2.59,-0.826 3.379,-2.047 0.563,-0.872 0.396,-1.88 -0.449,-2.44 -0.498,-0.331 -1.101,-0.503 -1.659,-0.748 -1.378,0.162 -2.213,0.982 -2.248,2.29 z"
   id="path193" />
	<path
   d="m 319.223,548.882 c -0.044,-0.504 -0.3,-1.132 -0.677,-1.419 -0.128,-0.098 -0.3,-0.139 -0.483,-0.164 0.225,0.747 0.472,1.561 0.743,2.438 0.295,-0.17 0.452,-0.459 0.417,-0.855 z"
   id="path195" />
	<path
   d="m 376.258,546.125 c -0.231,0.733 0.026,1.278 0.722,1.795 0.155,0.115 0.313,0.211 0.475,0.296 0.445,-1.32 0.823,-2.463 1.122,-3.379 -0.197,0.002 -0.395,0.005 -0.592,0.005 -0.968,-0.159 -1.377,0.179 -1.727,1.283 z"
   id="path197" />
	<path
   d="m 325.818,558.704 c 0.897,-0.37 1.185,-1.577 0.461,-1.977 -0.771,-0.424 -1.215,-1.057 -1.734,-1.69 -0.719,-0.875 -2.154,-0.764 -2.538,0.111 -0.204,0.465 -0.456,0.92 -0.751,1.333 -0.074,0.104 -0.132,0.214 -0.181,0.324 0.185,0.557 0.374,1.121 0.568,1.696 0.675,0.338 1.444,0.494 2.127,0.716 0.748,-0.18 1.433,-0.26 2.048,-0.513 z"
   id="path199" />
	<path
   d="m 336.374,555.233 c 0.809,-0.234 1.63,-0.427 2.416,-0.719 0.591,-0.217 0.969,-0.743 0.824,-1.363 -0.253,-1.095 -0.764,-2.103 -1.849,-2.59 -0.373,-0.169 -0.973,-0.174 -1.326,0.015 -0.934,0.496 -1.538,1.337 -1.844,2.358 -0.408,1.365 0.32,2.262 1.779,2.299 z"
   id="path201" />
	<path
   d="m 322.011,559.579 c 0.298,0.87 0.605,1.758 0.924,2.659 10e-4,-0.002 0.003,-0.004 0.004,-0.006 0.699,-1.108 0.263,-2.233 -0.928,-2.653 z"
   id="path203" />
	<path
   d="m 350.005,556.101 c 0.512,-0.971 0.299,-2.068 -0.46,-2.448 -1.083,-0.54 -2.229,-0.527 -3.371,-0.326 -0.673,0.12 -1.237,0.465 -1.275,1.336 0.135,0.312 0.197,0.695 0.422,0.918 0.506,0.506 1.043,1.013 1.651,1.376 1.574,0.938 2.2,0.732 3.033,-0.856 z"
   id="path205" />
	<path
   d="m 354.174,570.283 c 0.293,-0.821 0.416,-1.723 0.464,-2.598 0.027,-0.492 -0.386,-0.828 -0.932,-0.918 -0.664,-0.108 -1.321,-0.256 -1.98,-0.385 -0.005,0.023 -0.01,0.05 -0.016,0.075 -0.324,0 -0.688,-0.092 -0.967,0.021 -0.414,0.167 -0.975,0.408 -1.095,0.748 -0.134,0.385 0.006,1.049 0.286,1.357 0.612,0.679 1.354,1.262 2.105,1.79 0.694,0.486 1.944,0.446 2.135,-0.09 z"
   id="path207" />
	<path
   d="m 355.855,564.424 c 0.213,-1.39 -1.497,-2.958 -2.7,-2.775 -0.947,0.143 -1.984,1.526 -1.979,2.75 0.006,1.101 1.357,1.871 2.722,1.788 1.64,-0.1 2.054,-0.606 1.957,-1.763 z"
   id="path209" />
	<path
   d="m 320.91,544.744 c 1.06,-0.18 1.586,-0.882 1.594,-2.151 -0.02,-0.158 -0.032,-0.514 -0.118,-0.852 -0.34,-1.36 -0.949,-1.505 -1.862,-1.299 -1.238,0.278 -2.149,1.065 -2.72,2.177 -0.247,0.48 -0.144,1.019 0.301,1.444 0.811,0.77 1.794,0.854 2.805,0.681 z"
   id="path211" />
	<path
   d="m 366.787,564.203 c 0.659,0.383 1.354,0.346 2.019,0.02 1.169,-0.576 1.764,-1.517 1.719,-2.687 0.044,-1.128 -0.219,-1.513 -1.115,-1.856 -0.663,-0.254 -1.203,-0.01 -1.625,0.453 -0.501,0.55 -0.91,1.185 -1.388,1.76 -0.824,0.995 -0.73,1.66 0.39,2.31 z"
   id="path213" />
	<path
   d="m 345.487,561.094 c 1.519,-0.204 2.475,-0.679 2.407,-2.082 -0.015,-0.315 -0.359,-0.849 -0.604,-0.88 -1.021,-0.129 -1.721,-0.726 -2.458,-1.335 -0.177,-0.146 -0.64,-0.169 -0.827,-0.04 -0.864,0.591 -1.207,1.918 -0.846,2.969 0.25,0.723 1.37,1.382 2.328,1.368 z"
   id="path215" />
	<path
   d="m 347.152,586.376 c -0.176,0.637 -0.242,1.332 -0.204,1.993 0.016,0.255 0.421,0.628 0.71,0.702 1.378,0.35 3.357,-0.491 4.159,-1.683 0.371,-0.552 0.361,-1.09 -0.251,-1.394 -0.696,-0.345 -1.459,-0.559 -2.192,-0.83 -1.3,0.114 -1.997,0.4 -2.222,1.212 z"
   id="path217" />
	<path
   d="m 370.797,548.029 c -0.764,-0.228 -1.516,0.683 -1.193,1.244 0.563,0.98 0.422,1.952 0.261,2.98 -0.048,0.302 0.216,0.784 0.482,0.967 0.262,0.179 0.761,0.207 1.069,0.085 0.967,-0.39 1.329,-1.212 1.546,-2.217 0.429,-1.975 -0.803,-3.113 -2.165,-3.059 z"
   id="path219" />
	<path
   d="m 346.972,576.386 c -1.502,0.557 -2.289,1.938 -2.043,3.508 0.087,0.555 0.393,0.846 0.894,0.98 1.383,0.374 3.114,-0.953 3.099,-2.525 -0.043,-0.22 -0.111,-0.588 -0.185,-0.956 -0.193,-0.958 -0.865,-1.341 -1.765,-1.007 z"
   id="path221" />
	<path
   d="m 364.904,571.9 c -1.095,0.134 -2.399,1.267 -2.552,2.355 -0.053,0.379 0.1,0.961 0.373,1.18 0.729,0.578 1.56,0.983 2.561,0.512 0.997,-0.471 1.444,-1.251 1.501,-2.31 -0.009,-1.116 -0.825,-1.867 -1.883,-1.737 z"
   id="path223" />
	<path
   d="m 336.645,538.623 c -0.378,0.729 -0.581,1.549 -0.86,2.33 0.063,0.024 0.127,0.048 0.19,0.072 0.015,0.25 0.019,0.501 0.045,0.75 0.119,1.107 0.667,1.61 1.703,1.568 0.938,-0.039 1.507,-0.652 1.582,-1.667 0.084,-1.149 -0.229,-2.177 -0.918,-3.093 -0.475,-0.628 -1.382,-0.657 -1.742,0.04 z"
   id="path225" />
	<path
   d="m 334.484,546.545 c 0.406,0.362 0.893,0.646 1.369,0.919 1.531,0.881 2.312,0.596 2.951,-1.061 0.054,-0.14 0.079,-0.29 0.124,-0.435 0.396,-1.305 0.03,-1.8 -1.364,-1.929 -0.925,0.283 -1.863,0.533 -2.771,0.865 -0.827,0.302 -0.97,1.054 -0.309,1.641 z"
   id="path227" />
	<path
   d="m 334.259,562.635 c -0.535,0.998 -0.374,2.019 0.075,2.967 0.167,0.354 0.64,0.739 1.013,0.786 1.099,0.136 2.55,-1.283 2.568,-2.381 0.018,-1.037 -1.021,-2.005 -2.261,-2.08 -0.588,-0.033 -1.099,0.158 -1.395,0.708 z"
   id="path229" />
	<path
   d="m 337.693,577.904 c 0.214,-0.34 0.249,-0.795 0.344,-1.12 -0.092,-0.495 -0.124,-0.902 -0.241,-1.281 -0.316,-1.02 -1.067,-1.668 -1.816,-1.618 -0.941,0.063 -1.655,0.739 -1.92,1.823 -0.172,0.703 0.169,1.357 0.964,1.856 0.211,0.133 0.413,0.277 0.623,0.415 0.9,0.587 1.627,0.592 2.046,-0.075 z"
   id="path231" />
	<path
   d="m 367.273,574.1 c -0.006,0.214 0.049,0.433 0.143,0.637 0.432,-1.003 0.856,-2.01 1.274,-3.016 -0.751,0.618 -1.396,1.614 -1.417,2.379 z"
   id="path233" />
	<path
   d="m 373.72,535.008 c 0.005,0.002 0.01,0.004 0.015,0.006 -0.148,-0.169 -0.297,-0.349 -0.445,-0.514 0.049,0.223 0.179,0.403 0.43,0.508 z"
   id="path235" />
	<path
   d="m 341.098,523.042 c 0.113,-0.165 0.194,-0.352 0.289,-0.528 0.041,-0.077 0.062,-0.148 0.095,-0.225 -0.903,0.256 -1.786,0.559 -2.652,0.896 0.063,0.055 0.12,0.117 0.185,0.171 0.874,0.732 1.438,0.644 2.083,-0.314 z"
   id="path237" />
	<path
   d="m 364.489,556.304 c 0.355,-0.095 0.887,-0.172 1.363,-0.377 0.801,-0.347 0.891,-1.375 0.099,-1.688 -0.975,-0.38 -1.693,-0.948 -2.313,-1.77 -0.433,-0.571 -1.329,-0.428 -1.557,0.2 -0.764,2.111 -0.142,3.423 2.408,3.635 z"
   id="path239" />
	<path
   d="m 332.616,526.961 c 0.495,-0.059 1.019,-0.036 1.475,-0.2 0.378,-0.138 0.818,-0.434 0.961,-0.775 0.089,-0.215 -0.095,-0.624 -0.305,-0.895 -1.011,0.555 -1.986,1.153 -2.929,1.781 0.243,0.072 0.485,0.145 0.723,0.227 0.025,-0.046 0.05,-0.092 0.075,-0.138 z"
   id="path241" />
	<path
   d="m 316.752,542.09 c -0.09,0.136 -0.141,0.215 -0.141,0.215 0,0 0.077,0.28 0.22,0.787 0.032,-0.122 0.049,-0.243 0.047,-0.359 -0.004,-0.229 -0.053,-0.441 -0.126,-0.643 z"
   id="path243" />
	<path
   d="m 337.296,527.318 c 0.226,0.076 0.457,0.143 0.675,0.234 1.051,0.44 2.084,0.92 3.133,-0.043 0.62,-0.568 0.769,-1.769 0.237,-2.453 -0.56,-0.721 -1.445,-0.8 -2.261,-0.236 -0.386,0.265 -0.797,0.496 -1.218,0.697 -0.797,0.381 -0.931,0.694 -0.602,1.521 0.034,0.085 0.028,0.184 0.036,0.28 z"
   id="path245" />
	<path
   d="m 337.297,527.333 c -0.001,-0.005 -0.001,-0.01 -0.001,-0.015 -0.006,-0.002 -0.013,-0.005 -0.02,-0.007 0,0 0.021,0.022 0.021,0.022 z"
   id="path247" />
	<path
   d="m 347.302,529.07 c 0.669,-0.307 1.535,-0.672 2.369,-1.104 0.177,-0.091 0.326,-0.41 0.33,-0.628 0.019,-0.903 -1.675,-2.094 -2.549,-1.791 -0.467,0.162 -0.9,0.422 -1.342,0.647 -0.519,0.264 -0.831,0.615 -0.612,1.261 0.277,0.821 1.042,1.634 1.804,1.615 z"
   id="path249" />
	<path
   d="m 352.492,598.769 c -0.538,0.55 -0.662,1.172 -0.407,1.663 0.81,-0.653 1.632,-1.474 2.461,-2.436 -0.705,-0.069 -1.475,0.182 -2.054,0.773 z"
   id="path251" />
	<path
   d="m 348.335,522.674 c 0.594,-0.445 0.866,-0.907 0.882,-1.384 -0.618,-0.016 -1.23,-0.006 -1.837,0.023 0.218,0.215 0.418,0.459 0.59,0.746 0.128,0.216 0.256,0.431 0.365,0.615 z"
   id="path253" />
	<path
   d="m 365.36,569.212 c -0.002,-0.894 -0.664,-1.603 -1.49,-1.599 -1.001,0.007 -1.985,1.068 -2,2.159 -0.013,0.945 0.71,1.674 1.644,1.662 1.035,-0.013 1.848,-0.991 1.846,-2.222 z"
   id="path255" />
	<path
   d="m 374.553,545.708 c 1.401,0.071 1.989,-0.494 2.068,-1.987 0.058,-1.078 -0.251,-1.325 -1.756,-1.401 -1.394,-0.073 -1.659,0.129 -1.729,1.316 -0.09,1.559 0.219,2.014 1.417,2.072 z"
   id="path257" />
	<path
   d="m 334.518,587.464 c 0.868,-0.234 1.724,-1.351 1.728,-2.252 0.002,-0.861 -1.072,-1.896 -1.94,-1.868 -0.697,0.021 -1.012,0.369 -1.047,1.088 -0.029,0.57 -0.083,1.144 -0.177,1.707 -0.016,0.093 -0.018,0.18 -0.018,0.267 0.171,0.327 0.342,0.652 0.514,0.975 0.25,0.14 0.573,0.183 0.94,0.083 z"
   id="path259" />
	<path
   d="m 329.455,530.252 c 0.146,0.526 1.271,1.304 1.731,1.233 0.768,-0.119 1.213,-0.72 1.2,-1.638 -0.013,-0.83 -0.346,-1.538 -1.017,-1.995 -0.161,-0.11 -0.352,-0.213 -0.547,-0.299 -0.506,0.357 -0.999,0.723 -1.482,1.094 -0.04,0.16 -0.039,0.347 -0.067,0.607 0.047,0.265 0.082,0.64 0.182,0.998 z"
   id="path261" />
	<path
   d="m 338.185,523.441 c -0.952,0.393 -1.879,0.83 -2.781,1.303 0.393,0.204 0.813,0.337 1.236,0.416 1.159,0.069 1.924,-0.853 1.545,-1.719 z"
   id="path263" />
	<path
   d="m 362.687,545.884 c 0.273,-0.578 0,-1.037 -0.364,-1.335 -0.438,-0.356 -1.018,-0.54 -1.666,-0.862 -0.527,0.35 -1.143,0.561 -1.437,0.992 -0.642,0.945 0.522,2.615 1.735,2.553 0.868,-0.043 1.375,-0.591 1.732,-1.348 z"
   id="path265" />
	<path
   d="m 327.95,547.308 c -0.278,-0.151 -0.707,-0.228 -0.979,-0.117 -0.209,0.084 -0.277,0.512 -0.382,0.729 0.189,0.912 0.3,1.733 0.537,2.517 0.271,0.891 1.658,1.261 2.117,0.545 0.302,-0.472 0.437,-1.181 0.356,-1.742 -0.134,-0.916 -0.862,-1.504 -1.649,-1.932 z"
   id="path267" />
	<path
   d="m 373.697,548.871 c 0.223,0.111 0.461,0.192 0.687,0.297 0.605,0.283 0.964,-0.022 1.171,-0.542 0.117,-0.293 0.119,-0.633 0.148,-0.811 -0.008,-1.013 -0.401,-1.543 -1.13,-1.665 -0.861,-0.144 -1.561,0.239 -1.782,0.979 -0.223,0.739 0.086,1.341 0.906,1.742 z"
   id="path269" />
	<path
   d="m 333.562,568.253 c 0.084,0.908 0.539,1.392 1.503,1.385 0.969,-0.005 1.635,-0.591 1.603,-1.41 -0.03,-0.792 -0.692,-1.454 -1.438,-1.457 -0.716,-0.002 -1.741,0.691 -1.668,1.482 z"
   id="path271" />
	<path
   d="m 349.771,579.234 c 0.061,0.253 0.649,0.376 1,0.557 0.022,-0.039 0.043,-0.078 0.064,-0.119 0.173,-0.021 0.349,-0.072 0.518,-0.058 0.561,0.047 0.883,-0.328 0.959,-0.751 0.048,-0.266 -0.226,-0.647 -0.451,-0.888 -0.208,-0.226 -0.543,-0.333 -0.82,-0.494 -0.454,-0.267 -0.906,-0.152 -1.084,0.271 -0.189,0.452 -0.3,1.026 -0.186,1.482 z"
   id="path273" />
</g><path
     fill="none"
     stroke="#000000"
     stroke-miterlimit="10"
     d="m 348,602.126 c -16.924,-2.654 -31.389,-59.821 -31.389,-59.821 0,0 29.197,-47.477 62.778,0 10e-4,0 -19.693,61.655 -31.389,59.821 z"
     id="path277" /></g>
</svg>
